<?xml version="1.0" encoding="UTF-8"?>
<svg version="1.1" xmlns="http://www.w3.org/2000/svg" width="126" height="102">
<path d="M0 0 C41.58 0 83.16 0 126 0 C126 33.66 126 67.32 126 102 C84.42 102 42.84 102 0 102 C0 68.34 0 34.68 0 0 Z " fill="#4311A1" transform="translate(0,0)"/>
<path d="M0 0 C7.64618666 4.34867867 12.0409675 10.79990514 14.7265625 19.2265625 C16.18957515 27.44573467 15.06164097 35.16443929 10.78515625 42.34375 C7.49713416 47.03841255 3.97732139 50.21932364 -0.92578125 53.1796875 C-1.91578125 53.1796875 -2.90578125 53.1796875 -3.92578125 53.1796875 C-3.43078125 53.953125 -3.43078125 53.953125 -2.92578125 54.7421875 C-1.51615867 58.17814255 -1.40892035 60.49705357 -1.92578125 64.1796875 C-4.67578125 66.9921875 -4.67578125 66.9921875 -7.92578125 69.1796875 C-8.56515625 69.6128125 -9.20453125 70.0459375 -9.86328125 70.4921875 C-12.8952823 71.50285452 -15.75970406 71.3014597 -18.92578125 71.1796875 C-18.92578125 71.8396875 -18.92578125 72.4996875 -18.92578125 73.1796875 C-17.93578125 73.5096875 -16.94578125 73.8396875 -15.92578125 74.1796875 C-15.92578125 74.5096875 -15.92578125 74.8396875 -15.92578125 75.1796875 C-16.63863281 75.1075 -17.35148437 75.0353125 -18.0859375 74.9609375 C-19.04371094 74.868125 -20.00148437 74.7753125 -20.98828125 74.6796875 C-21.92800781 74.586875 -22.86773437 74.4940625 -23.8359375 74.3984375 C-26.93385203 74.12726986 -26.93385203 74.12726986 -30.0769043 74.27319336 C-34.44044398 74.16718412 -38.35480011 73.41948918 -42.59765625 72.46484375 C-43.40189026 72.28964706 -44.20612427 72.11445038 -45.034729 71.9339447 C-47.58328982 71.376805 -50.12945833 70.80945675 -52.67578125 70.2421875 C-54.40090389 69.86460432 -56.12616321 69.48764507 -57.8515625 69.11132812 C-59.49621527 68.75055351 -61.14075083 68.38924412 -62.78515625 68.02734375 C-63.94298615 67.77260033 -63.94298615 67.77260033 -65.12420654 67.51271057 C-68.11309354 66.84623783 -71.01833127 66.14883749 -73.92578125 65.1796875 C-75.11328125 62.1171875 -75.11328125 62.1171875 -75.92578125 59.1796875 C-74.46698016 59.32076497 -73.00874574 59.46771165 -71.55078125 59.6171875 C-70.73867187 59.69839844 -69.9265625 59.77960938 -69.08984375 59.86328125 C-66.92578125 60.1796875 -66.92578125 60.1796875 -64.92578125 61.1796875 C-64.80460937 60.38304687 -64.6834375 59.58640625 -64.55859375 58.765625 C-64.39101562 57.70601562 -64.2234375 56.64640625 -64.05078125 55.5546875 C-63.80714844 53.98847656 -63.80714844 53.98847656 -63.55859375 52.390625 C-62.92578125 49.1796875 -62.92578125 49.1796875 -60.92578125 43.1796875 C-66.86578125 45.4896875 -72.80578125 47.7996875 -78.92578125 50.1796875 C-79.42078125 48.6946875 -79.42078125 48.6946875 -79.92578125 47.1796875 C-77.49073616 46.173322 -75.05307261 45.17442337 -72.61328125 44.1796875 C-71.5778418 43.75042969 -71.5778418 43.75042969 -70.52148438 43.3125 C-67.51032451 42.09058006 -65.20691141 41.1796875 -61.92578125 41.1796875 C-61.92578125 40.5196875 -61.92578125 39.8596875 -61.92578125 39.1796875 C-66.9362585 39.00984081 -70.31216933 39.07060776 -74.92578125 41.1796875 C-75.91578125 41.1796875 -76.90578125 41.1796875 -77.92578125 41.1796875 C-77.92578125 40.5196875 -77.92578125 39.8596875 -77.92578125 39.1796875 C-76.93578125 38.6846875 -76.93578125 38.6846875 -75.92578125 38.1796875 C-76.12042969 37.49519531 -76.31507812 36.81070313 -76.515625 36.10546875 C-77.02039306 32.50478991 -76.37609484 29.88292931 -75.48828125 26.3671875 C-75.20082031 25.20574219 -74.91335937 24.04429688 -74.6171875 22.84765625 C-74.38902344 21.96722656 -74.16085938 21.08679688 -73.92578125 20.1796875 C-73.26578125 20.1796875 -72.60578125 20.1796875 -71.92578125 20.1796875 C-72.25578125 18.5296875 -72.58578125 16.8796875 -72.92578125 15.1796875 C-71.93578125 15.1796875 -70.94578125 15.1796875 -69.92578125 15.1796875 C-69.08123769 11.80151325 -68.81733206 9.50503507 -69.92578125 6.1796875 C-68.93578125 6.8396875 -67.94578125 7.4996875 -66.92578125 8.1796875 C-64.32057393 8.5641037 -64.32057393 8.5641037 -61.48828125 8.6796875 C-57.76415335 8.88236113 -55.16230793 9.2821494 -51.92578125 11.1796875 C-51.59578125 9.1996875 -51.26578125 7.2196875 -50.92578125 5.1796875 C-50.26578125 5.1796875 -49.60578125 5.1796875 -48.92578125 5.1796875 C-49.00957031 5.80617188 -49.09335937 6.43265625 -49.1796875 7.078125 C-49.28152344 7.89539062 -49.38335937 8.71265625 -49.48828125 9.5546875 C-49.59269531 10.36679687 -49.69710937 11.17890625 -49.8046875 12.015625 C-50.10815453 14.22867936 -50.10815453 14.22867936 -48.92578125 16.1796875 C-48.73828125 19.6796875 -48.73828125 19.6796875 -48.92578125 23.1796875 C-49.58578125 23.8396875 -50.24578125 24.4996875 -50.92578125 25.1796875 C-53.29864836 23.0441071 -54.77765241 21.59444825 -55.86328125 18.5546875 C-56.73767111 15.92712083 -56.73767111 15.92712083 -59.55078125 14.8671875 C-60.33453125 14.6403125 -61.11828125 14.4134375 -61.92578125 14.1796875 C-62.25578125 15.1696875 -62.58578125 16.1596875 -62.92578125 17.1796875 C-63.58578125 17.5096875 -64.24578125 17.8396875 -64.92578125 18.1796875 C-64.35125379 22.11044394 -64.35125379 22.11044394 -61.92578125 25.1796875 C-61.65765625 26.0046875 -61.38953125 26.8296875 -61.11328125 27.6796875 C-60.12849662 30.41522446 -60.12849662 30.41522446 -57.30078125 31.4921875 C-56.51703125 31.7190625 -55.73328125 31.9459375 -54.92578125 32.1796875 C-54.59578125 35.4796875 -54.26578125 38.7796875 -53.92578125 42.1796875 C-49.99502481 41.60516004 -49.99502481 41.60516004 -46.92578125 39.1796875 C-44.81860352 39.31982422 -44.81860352 39.31982422 -42.2421875 39.859375 C-41.31470703 40.04628906 -40.38722656 40.23320313 -39.43164062 40.42578125 C-38.46033203 40.63332031 -37.48902344 40.84085938 -36.48828125 41.0546875 C-34.57338066 41.45016997 -32.65803281 41.84349469 -30.7421875 42.234375 C-29.89084229 42.41468262 -29.03949707 42.59499023 -28.16235352 42.78076172 C-25.81219502 43.26748425 -25.81219502 43.26748425 -22.92578125 43.1796875 C-21.60578125 39.8796875 -20.28578125 36.5796875 -18.92578125 33.1796875 C-23.5445829 33.86004159 -23.5445829 33.86004159 -25.94140625 35.234375 C-28.33907562 36.37657183 -30.03623015 36.38232136 -32.67578125 36.3046875 C-33.475 36.28664062 -34.27421875 36.26859375 -35.09765625 36.25 C-35.7009375 36.22679687 -36.30421875 36.20359375 -36.92578125 36.1796875 C-37.25578125 35.1896875 -37.58578125 34.1996875 -37.92578125 33.1796875 C-37.26578125 32.1896875 -36.60578125 31.1996875 -35.92578125 30.1796875 C-34.95640625 30.2003125 -33.98703125 30.2209375 -32.98828125 30.2421875 C-31.97765625 30.2215625 -30.96703125 30.2009375 -29.92578125 30.1796875 C-28.01321413 28.29890877 -28.01321413 28.29890877 -26.92578125 26.1796875 C-27.91578125 25.8496875 -28.90578125 25.5196875 -29.92578125 25.1796875 C-29.59578125 23.5296875 -29.26578125 21.8796875 -28.92578125 20.1796875 C-31.27749256 20.77830492 -33.61171905 21.44893102 -35.92578125 22.1796875 C-36.25578125 22.8396875 -36.58578125 23.4996875 -36.92578125 24.1796875 C-38.90578125 23.8496875 -40.88578125 23.5196875 -42.92578125 23.1796875 C-42.65765625 22.5403125 -42.38953125 21.9009375 -42.11328125 21.2421875 C-39.69241361 14.99889728 -37.71017575 8.63095993 -35.92578125 2.1796875 C-34.93578125 2.1796875 -33.94578125 2.1796875 -32.92578125 2.1796875 C-33.23472057 3.8053682 -33.54805075 5.43021498 -33.86328125 7.0546875 C-34.03730469 7.95960937 -34.21132813 8.86453125 -34.390625 9.796875 C-34.92578125 12.1796875 -34.92578125 12.1796875 -35.92578125 14.1796875 C-32.94726562 14.08203125 -32.94726562 14.08203125 -29.96875 13.984375 C-27.92578125 14.1796875 -27.92578125 14.1796875 -24.92578125 16.1796875 C-20.10753409 15.85117065 -16.25415598 14.17073988 -11.92578125 12.1796875 C-8.88216112 17.43110737 -10.19368238 22.13563838 -11.5625 27.82714844 C-12.31056014 30.5828991 -13.10669427 33.31924609 -13.92578125 36.0546875 C-14.1990625 36.99054687 -14.47234375 37.92640625 -14.75390625 38.890625 C-15.76452196 42.33860801 -16.78949138 45.7708179 -17.92578125 49.1796875 C-15.61578125 49.5096875 -13.30578125 49.8396875 -10.92578125 50.1796875 C-10.81105469 49.16777344 -10.69632812 48.15585938 -10.578125 47.11328125 C-9.93281655 43.22210992 -8.88377033 39.92346284 -7.48828125 36.2421875 C-3.45536422 26.46332773 -3.45536422 26.46332773 -2.92578125 16.1796875 C-3.73015625 15.7465625 -4.53453125 15.3134375 -5.36328125 14.8671875 C-7.92578125 13.1796875 -7.92578125 13.1796875 -8.48046875 11.21875 C-8.71263702 9.21366036 -8.82663127 7.19573707 -8.92578125 5.1796875 C-14.80574183 3.0563684 -20.8587165 1.65227603 -26.92578125 0.1796875 C-23.35088539 -6.97010421 -5.66492769 -2.71541989 0 0 Z " fill="#F5E1D6" transform="translate(96.92578125,19.8203125)"/>
<path d="M0 0 C7.64618666 4.34867867 12.0409675 10.79990514 14.7265625 19.2265625 C16.18957515 27.44573467 15.06164097 35.16443929 10.78515625 42.34375 C7.21378933 47.44297443 3.02156408 51.70519275 -2.93359375 53.9296875 C-6.31597015 54.35414258 -8.32584873 52.12963689 -10.92578125 50.1796875 C-10.36171997 45.20454027 -9.26115737 40.91900314 -7.48828125 36.2421875 C-3.45536422 26.46332773 -3.45536422 26.46332773 -2.92578125 16.1796875 C-3.73015625 15.7465625 -4.53453125 15.3134375 -5.36328125 14.8671875 C-7.92578125 13.1796875 -7.92578125 13.1796875 -8.48046875 11.21875 C-8.71263702 9.21366036 -8.82663127 7.19573707 -8.92578125 5.1796875 C-14.80574183 3.0563684 -20.8587165 1.65227603 -26.92578125 0.1796875 C-23.35088539 -6.97010421 -5.66492769 -2.71541989 0 0 Z " fill="#8196E0" transform="translate(96.92578125,19.8203125)"/>
<path d="M0 0 C7.66816143 0.03408072 7.66816143 0.03408072 10.93359375 2.40234375 C12.3665059 3.86274582 13.69349705 5.42549644 15 7 C15.66 6.67 16.32 6.34 17 6 C16.34 5.01 15.68 4.02 15 3 C16.32 3 17.64 3 19 3 C19 3.99 19 4.98 19 6 C19.70125 5.95359375 20.4025 5.9071875 21.125 5.859375 C28.82840267 5.56631077 34.20509633 6.56086855 40 11.8125 C41.52913127 15.15747465 41.57291516 17.37153729 41 21 C38.25 23.8125 38.25 23.8125 35 26 C34.0409375 26.6496875 34.0409375 26.6496875 33.0625 27.3125 C30.03049895 28.32316702 27.16607719 28.1217722 24 28 C24 28.66 24 29.32 24 30 C24.99 30.33 25.98 30.66 27 31 C27 31.33 27 31.66 27 32 C19.18536224 31.96455947 19.18536224 31.96455947 16.40625 29.703125 C15.9215625 29.18234375 15.436875 28.6615625 14.9375 28.125 C10.44516422 23.66475233 4.44973109 23.43746389 -1.55078125 22.54296875 C-5 22 -5 22 -7 21 C-6.41632611 14.69632197 -4.95928381 9.01339937 -3 3 C0 3 0 3 2.26171875 4.96875 C3.06222656 5.8040625 3.86273438 6.639375 4.6875 7.5 C5.49574219 8.3353125 6.30398437 9.170625 7.13671875 10.03125 C7.75160156 10.6809375 8.36648437 11.330625 9 12 C9 11.01 9 10.02 9 9 C7.02043058 7.30911778 5.02054804 5.64169528 3 4 C3 3.34 3 2.68 3 2 C2.01 1.67 1.02 1.34 0 1 C0 0.67 0 0.34 0 0 Z " fill="#FCA736" transform="translate(54,63)"/>
<path d="M0 0 C-1.40880874 7.5835875 -2.74840545 14.42935388 -7 21 C-5.02 21.33 -3.04 21.66 -1 22 C-0.34 20.68 0.32 19.36 1 18 C2.98 18 4.96 18 7 18 C7 19.65 7 21.3 7 23 C7.66 23.33 8.32 23.66 9 24 C8.3125 25.9375 8.3125 25.9375 7 28 C4.56968481 28.72909456 2.52838375 29 0 29 C-0.33 30.32 -0.66 31.64 -1 33 C4.72804306 33.33694371 8.09328365 33.2244136 13 30 C15.13671875 30.41015625 15.13671875 30.41015625 17 31 C16.60446947 32.6510403 16.18286103 34.2958515 15.75 35.9375 C15.40195313 37.31228516 15.40195313 37.31228516 15.046875 38.71484375 C14 41 14 41 12.23950195 41.69799805 C9.6106144 42.05250954 7.70496126 41.70768663 5.12109375 41.1171875 C4.20005859 40.91996094 3.27902344 40.72273438 2.33007812 40.51953125 C0.39630146 40.08864246 -1.53600434 39.65110055 -3.46679688 39.20703125 C-4.38654297 39.01238281 -5.30628906 38.81773438 -6.25390625 38.6171875 C-7.51182983 38.33270752 -7.51182983 38.33270752 -8.79516602 38.04248047 C-11.09488878 37.74566557 -11.09488878 37.74566557 -12.62866211 39.48095703 C-13.08120361 39.98224121 -13.53374512 40.48352539 -14 41 C-16.6875 40.6875 -16.6875 40.6875 -19 40 C-19 36.7 -19 33.4 -19 30 C-19.78375 29.87625 -20.5675 29.7525 -21.375 29.625 C-24 29 -24 29 -26 27 C-27 24.5 -27 24.5 -28 22 C-28.66 21.34 -29.32 20.68 -30 20 C-29.7862539 17.22130072 -29.2989626 15.44844389 -27.75 13.125 C-26 12 -26 12 -23.4375 12.1875 C-21 13 -21 13 -19 15 C-18.33333333 16.66666667 -17.66666667 18.33333333 -17 20 C-16.34 20.66 -15.68 21.32 -15 22 C-13.61822838 20.8448749 -13.61822838 20.8448749 -13.875 17.6875 C-13.8452398 14.24590178 -13.8452398 14.24590178 -14.5625 12 C-15.26671406 8.78073572 -14.76356825 6.17174503 -14 3 C-12.1875 1.6875 -12.1875 1.6875 -10 1 C-9.38125 0.608125 -8.7625 0.21625 -8.125 -0.1875 C-5.17865786 -1.31404258 -3.02096204 -0.68658228 0 0 Z " fill="#CF6066" transform="translate(61,22)"/>
<path d="M0 0 C0 0.66 0 1.32 0 2 C-1.4562545 2.67119549 -2.91507867 3.33681807 -4.375 4 C-5.18710937 4.37125 -5.99921875 4.7425 -6.8359375 5.125 C-9 6 -9 6 -11 6 C-10.484375 6.5775 -9.96875 7.155 -9.4375 7.75 C-8 10 -8 10 -8.19140625 12 C-9.22033626 14.54498629 -10.04442006 15.05998818 -12.5 16.25 C-17.2685222 18.20987806 -21.79195078 18.36425814 -26.875 18.375 C-27.99938477 18.37741699 -27.99938477 18.37741699 -29.14648438 18.37988281 C-32.93167589 18.30280878 -34.78435203 18.14376531 -38 16 C-37.505 11.545 -37.505 11.545 -37 7 C-37.99 7 -38.98 7 -40 7 C-40.06058594 7.75925781 -40.12117188 8.51851562 -40.18359375 9.30078125 C-40.26738281 10.29464844 -40.35117187 11.28851563 -40.4375 12.3125 C-40.51871094 13.29863281 -40.59992187 14.28476562 -40.68359375 15.30078125 C-41 18 -41 18 -42 21 C-42.42882965 24.33694329 -42.81167801 27.67367355 -43.16210938 31.01953125 C-43.6159096 34.98198199 -44.30412619 38.38118977 -46 42 C-47.65 41.67 -49.3 41.34 -51 41 C-51.75 39.25 -51.75 39.25 -52 37 C-51.4225 36.443125 -50.845 35.88625 -50.25 35.3125 C-43.48660645 28.3612344 -43.40185128 15.21642649 -42 6 C-44.31 5.67 -46.62 5.34 -49 5 C-47.46593469 1.93186938 -44.95999262 1.74695544 -41.81762695 0.68920898 C-26.92086744 -4.03463745 -15.07291766 -3.25064206 0 0 Z " fill="#1A2545" transform="translate(64,8)"/>
<path d="M0 0 C0.66 0 1.32 0 2 0 C1.91621094 0.62648438 1.83242188 1.25296875 1.74609375 1.8984375 C1.64425781 2.71570313 1.54242188 3.53296875 1.4375 4.375 C1.33308594 5.18710937 1.22867188 5.99921875 1.12109375 6.8359375 C0.81762672 9.04899186 0.81762672 9.04899186 2 11 C2.1875 14.5 2.1875 14.5 2 18 C1.34 18.66 0.68 19.32 0 20 C-2.37286711 17.8644196 -3.85187116 16.41476075 -4.9375 13.375 C-5.81188986 10.74743333 -5.81188986 10.74743333 -8.625 9.6875 C-9.40875 9.460625 -10.1925 9.23375 -11 9 C-11.33 9.99 -11.66 10.98 -12 12 C-12.99 12.495 -12.99 12.495 -14 13 C-13.42547254 16.93075644 -13.42547254 16.93075644 -11 20 C-10.731875 20.825 -10.46375 21.65 -10.1875 22.5 C-9.20271537 25.23553696 -9.20271537 25.23553696 -6.375 26.3125 C-5.59125 26.539375 -4.8075 26.76625 -4 27 C-3.67 30.3 -3.34 33.6 -3 37 C0.93075644 36.42547254 0.93075644 36.42547254 4 34 C2.66666667 53.33333333 2.66666667 53.33333333 -2 58 C-3.69141656 57.91036938 -5.37959602 57.75422324 -7.0625 57.5625 C-7.98160156 57.46066406 -8.90070312 57.35882813 -9.84765625 57.25390625 C-10.55792969 57.17011719 -11.26820312 57.08632812 -12 57 C-10.52033871 49.28835349 -8.79704634 41.64343712 -7 34 C-11.25132068 32.51397605 -15.48172585 31.36124522 -19.875 30.375 C-21.89625 29.92125 -23.9175 29.4675 -26 29 C-25.01 24.38 -24.02 19.76 -23 15 C-22.34 15 -21.68 15 -21 15 C-21.33 13.35 -21.66 11.7 -22 10 C-21.01 10 -20.02 10 -19 10 C-18.15545644 6.62182575 -17.89155081 4.32534757 -19 1 C-18.01 1.66 -17.02 2.32 -16 3 C-13.39479268 3.3844162 -13.39479268 3.3844162 -10.5625 3.5 C-6.8383721 3.70267363 -4.23652668 4.1024619 -1 6 C-0.67 4.02 -0.34 2.04 0 0 Z " fill="#D35F65" transform="translate(46,25)"/>
<path d="M0 0 C-1.32 5.94 -2.64 11.88 -4 18 C-7.3 17.67 -10.6 17.34 -14 17 C-13.67 18.65 -13.34 20.3 -13 22 C-11.83162598 22.16218018 -11.83162598 22.16218018 -10.63964844 22.32763672 C-1.20747261 23.69935982 7.98349437 25.73975004 17.24609375 27.96484375 C23.67266376 29.45240785 29.40288663 30.32283746 36 30 C36.495 31.485 36.495 31.485 37 33 C36.505 33.99 36.505 33.99 36 35 C28.26022698 35.51404508 21.33865691 33.59564685 13.875 31.6875 C11.3936891 31.06457132 8.91191804 30.44347269 6.4296875 29.82421875 C5.21015381 29.51661621 3.99062012 29.20901367 2.73413086 28.89208984 C0.17081774 28.27971023 -2.36788605 27.71211699 -4.95092773 27.20556641 C-6.20591064 26.9585498 -7.46089355 26.7115332 -8.75390625 26.45703125 C-9.88642822 26.24667236 -11.0189502 26.03631348 -12.18579102 25.81958008 C-15.09162224 24.97331692 -16.13341992 24.4590156 -17.8125 22 C-19.16122786 18.59268752 -20.19496799 15.65603461 -20.375 12 C-20.42398437 11.319375 -20.47296875 10.63875 -20.5234375 9.9375 C-20 8 -20 8 -17.89453125 6.41796875 C-14.74804562 4.87657296 -11.5882637 3.55631906 -8.3125 2.3125 C-7.17425781 1.87550781 -6.03601563 1.43851562 -4.86328125 0.98828125 C-2 0 -2 0 0 0 Z " fill="#374A8A" transform="translate(36,63)"/>
<path d="M0 0 C10.29239053 -0.58076185 17.52399957 0.52484588 26.25 6.0625 C31.66767059 11.00168686 35.54984726 18.98772237 36.203125 26.26171875 C36.39396962 36.13792767 33.81255611 43.72799243 27 51 C23.63047994 53.93921338 20.42218375 56.08273481 16 57 C15.67 56.34 15.34 55.68 15 55 C15.44730469 54.67128906 15.89460938 54.34257813 16.35546875 54.00390625 C22.70214786 49.01046362 26.75914351 43.07183411 28 35 C28.91946618 26.03143648 26.86777319 18.39676482 21.375 11.1875 C15.74661034 5.1611434 7.88084715 2.60535775 0 1 C0 0.67 0 0.34 0 0 Z " fill="#98ABF1" transform="translate(76,17)"/>
<path d="M0 0 C0.99 0 1.98 0 3 0 C2.69106068 1.6256807 2.3777305 3.25052748 2.0625 4.875 C1.88847656 5.77992187 1.71445312 6.68484375 1.53515625 7.6171875 C1 10 1 10 0 12 C2.97851562 11.90234375 2.97851562 11.90234375 5.95703125 11.8046875 C8 12 8 12 11 14 C13.33199388 14.07905064 15.66832622 14.08798769 18 14 C18 14.66 18 15.32 18 16 C16.68 16.33 15.36 16.66 14 17 C14.33 18.65 14.66 20.3 15 22 C16.65 21.67 18.3 21.34 20 21 C20 21.66 20 22.32 20 23 C18.02 23.99 18.02 23.99 16 25 C16.33 26.65 16.66 28.3 17 30 C15.88625 30.474375 14.7725 30.94875 13.625 31.4375 C11.73289006 32.25306463 9.84287291 33.07856355 8 34 C6.45976004 34.06950541 4.91665012 34.08452357 3.375 34.0625 C2.14910156 34.04896484 2.14910156 34.04896484 0.8984375 34.03515625 C0.27195312 34.02355469 -0.35453125 34.01195312 -1 34 C-1.495 32.515 -1.495 32.515 -2 31 C-1.34 30.01 -0.68 29.02 0 28 C1.4540625 28.0309375 1.4540625 28.0309375 2.9375 28.0625 C3.948125 28.041875 4.95875 28.02125 6 28 C7.91256712 26.11922127 7.91256712 26.11922127 9 24 C8.01 23.67 7.02 23.34 6 23 C6.33 21.35 6.66 19.7 7 18 C4.64828869 18.59861742 2.3140622 19.26924352 0 20 C-0.33 20.66 -0.66 21.32 -1 22 C-2.98 21.67 -4.96 21.34 -7 21 C-6.731875 20.360625 -6.46375 19.72125 -6.1875 19.0625 C-3.76663236 12.81920978 -1.7843945 6.45127243 0 0 Z " fill="#F7EDE9" transform="translate(61,22)"/>
<path d="M0 0 C0.66 0 1.32 0 2 0 C1.91621094 0.62648438 1.83242188 1.25296875 1.74609375 1.8984375 C1.64425781 2.71570313 1.54242188 3.53296875 1.4375 4.375 C1.33308594 5.18710937 1.22867188 5.99921875 1.12109375 6.8359375 C0.81762672 9.04899186 0.81762672 9.04899186 2 11 C2.1875 14.5 2.1875 14.5 2 18 C1.34 18.66 0.68 19.32 0 20 C-2.37286711 17.8644196 -3.85187116 16.41476075 -4.9375 13.375 C-5.81188986 10.74743333 -5.81188986 10.74743333 -8.625 9.6875 C-9.40875 9.460625 -10.1925 9.23375 -11 9 C-11.33 9.99 -11.66 10.98 -12 12 C-12.99 12.495 -12.99 12.495 -14 13 C-13.42547254 16.93075644 -13.42547254 16.93075644 -11 20 C-10.28591666 21.98356483 -9.61382258 23.98315437 -9 26 C-12.55948201 25.67641073 -14.53463476 25.3899006 -17.3125 23.0625 C-19 21 -19 21 -20 19 C-20.99 18.67 -21.98 18.34 -23 18 C-23 17.01 -23 16.02 -23 15 C-22.34 15 -21.68 15 -21 15 C-21.33 13.35 -21.66 11.7 -22 10 C-21.01 10 -20.02 10 -19 10 C-18.15545644 6.62182575 -17.89155081 4.32534757 -19 1 C-18.01 1.66 -17.02 2.32 -16 3 C-13.39479268 3.3844162 -13.39479268 3.3844162 -10.5625 3.5 C-6.8383721 3.70267363 -4.23652668 4.1024619 -1 6 C-0.67 4.02 -0.34 2.04 0 0 Z " fill="#F7ECE9" transform="translate(46,25)"/>
<path d="M0 0 C-1.40880874 7.5835875 -2.74840545 14.42935388 -7 21 C-5.02 21.33 -3.04 21.66 -1 22 C-1 24.83967231 -1.40267181 27.23735711 -2 30 C-2.99 30.33 -3.98 30.66 -5 31 C-6.85776765 27.86501708 -7.20140476 25.62528568 -7 22 C-7.78375 22.515625 -8.5675 23.03125 -9.375 23.5625 C-10.24125 24.036875 -11.1075 24.51125 -12 25 C-12.66 24.67 -13.32 24.34 -14 24 C-13.98839844 23.32453125 -13.97679687 22.6490625 -13.96484375 21.953125 C-13.95582031 21.06109375 -13.94679687 20.1690625 -13.9375 19.25 C-13.92009766 17.92742188 -13.92009766 17.92742188 -13.90234375 16.578125 C-13.99229448 14.20342577 -14.41667072 12.28627442 -15 10 C-14.8125 6.375 -14.8125 6.375 -14 3 C-12.1875 1.6875 -12.1875 1.6875 -10 1 C-9.071875 0.4121875 -9.071875 0.4121875 -8.125 -0.1875 C-5.17865786 -1.31404258 -3.02096204 -0.68658228 0 0 Z " fill="#CF6066" transform="translate(61,22)"/>
<path d="M0 0 C0.66 0.33 1.32 0.66 2 1 C3.16112302 6.68764005 2.89596823 11.15081182 1.3125 16.75 C1.13041992 17.43449219 0.94833984 18.11898437 0.76074219 18.82421875 C-0.9059099 24.96481684 -2.86590434 31.00636964 -5 37 C-6.98 37 -8.96 37 -11 37 C-9.90301833 31.30860098 -8.45946923 26.25432063 -6 21 C-6.66 20.67 -7.32 20.34 -8 20 C-8 17.84365964 -7.5534764 16.07553648 -7 14 C-5.68 13.67 -4.36 13.34 -3 13 C-3 12.34 -3 11.68 -3 11 C-4.65 11.33 -6.3 11.66 -8 12 C-8.33 10.35 -8.66 8.7 -9 7 C-7.68 6.67 -6.36 6.34 -5 6 C-5.33 5.01 -5.66 4.02 -6 3 C-4.03533587 1.93224776 -2.03144641 0.93446535 0 0 Z " fill="#EBD7CD" transform="translate(84,32)"/>
<path d="M0 0 C18.49537037 1.49537037 18.49537037 1.49537037 21 4 C21.3125 6.375 21.3125 6.375 21 9 C18.42623396 11.57376604 15.47640493 12.98251563 12 14 C10.32330089 13.7214879 8.65659444 13.38024171 7 13 C6.11699219 12.82339844 5.23398438 12.64679687 4.32421875 12.46484375 C1.8828125 11.9765625 -0.55859375 11.48828125 -3 11 C-2.69078116 9.54096742 -2.37751201 8.08279278 -2.0625 6.625 C-1.88847656 5.81289063 -1.71445312 5.00078125 -1.53515625 4.1640625 C-1 2 -1 2 0 0 Z " fill="#334888" transform="translate(64,23)"/>
<path d="M0 0 C1.73630227 1.46317607 3.46285896 2.93522616 5.17578125 4.42578125 C6.56935383 5.62837172 7.9965377 6.79211971 9.4375 7.9375 C11.70904646 10.93594133 11.19361199 13.32137218 11 17 C11.30003267 18.67298215 11.62737482 20.34167574 12 22 C9.54104382 21.69188262 7.08291693 21.37871012 4.625 21.0625 C3.92632812 20.97548828 3.22765625 20.88847656 2.5078125 20.79882812 C-2.7734375 20.11328125 -2.7734375 20.11328125 -5 19 C-3.57142857 3.57142857 -3.57142857 3.57142857 0 0 Z " fill="#394E8A" transform="translate(52,65)"/>
<path d="M0 0 C2.4375 0.8125 2.4375 0.8125 4.4375 2.8125 C4.705625 3.59625 4.97375 4.38 5.25 5.1875 C6.7101384 8.41517436 8.58354451 9.78468952 11.4375 11.8125 C13.0875 11.1525 14.7375 10.4925 16.4375 9.8125 C16.55867188 10.45058594 16.67984375 11.08867188 16.8046875 11.74609375 C16.97226562 12.57238281 17.13984375 13.39867187 17.3125 14.25 C17.55613281 15.48556641 17.55613281 15.48556641 17.8046875 16.74609375 C18.01351562 17.42800781 18.22234375 18.10992187 18.4375 18.8125 C19.0975 19.1425 19.7575 19.4725 20.4375 19.8125 C17.5625 19.9375 17.5625 19.9375 14.4375 19.8125 C13.7775 19.1525 13.1175 18.4925 12.4375 17.8125 C12.4375 16.4925 12.4375 15.1725 12.4375 13.8125 C10.7875 13.8125 9.1375 13.8125 7.4375 13.8125 C7.1075 14.8025 6.7775 15.7925 6.4375 16.8125 C3.625 17.5 3.625 17.5 0.4375 17.8125 C-2.58464017 15.8696956 -3.31058324 13.06748358 -4.5625 9.8125 C-5.2225 9.1525 -5.8825 8.4925 -6.5625 7.8125 C-6.3487539 5.03380072 -5.8614626 3.26094389 -4.3125 0.9375 C-2.5625 -0.1875 -2.5625 -0.1875 0 0 Z " fill="#5D4A5E" transform="translate(37.5625,34.1875)"/>
<path d="M0 0 C0.99 0 1.98 0 3 0 C3 2.97 3 5.94 3 9 C6.29960141 10.6498007 9.99127884 10.38258361 13.625 10.5625 C14.42679688 10.60568359 15.22859375 10.64886719 16.0546875 10.69335938 C18.0362511 10.79951457 20.01810271 10.90026855 22 11 C21.67 12.65 21.34 14.3 21 16 C18.54006972 15.7186941 16.08259752 15.42547269 13.625 15.125 C12.57699219 15.00705078 12.57699219 15.00705078 11.5078125 14.88671875 C6.2265625 14.2265625 6.2265625 14.2265625 4 12 C4.20625 12.763125 4.4125 13.52625 4.625 14.3125 C5 17 5 17 3 20 C2.01 20 1.02 20 0 20 C0.33 21.65 0.66 23.3 1 25 C0.34 25 -0.32 25 -1 25 C-1.33 27.97 -1.66 30.94 -2 34 C-2.99 33.34 -3.98 32.68 -5 32 C-3.95330739 21.13902494 -2.56214239 10.62435045 0 0 Z " fill="#4C1A9B" transform="translate(24,15)"/>
<path d="M0 0 C13.6332574 1.92710706 13.6332574 1.92710706 20 4 C19.01 7.96 18.02 11.92 17 16 C16.34 15.67 15.68 15.34 15 15 C15.33 13.02 15.66 11.04 16 9 C7.09 12.465 7.09 12.465 -2 16 C-2.33 15.01 -2.66 14.02 -3 13 C-0.56495491 11.9936345 1.87270864 10.99473587 4.3125 10 C5.00279297 9.71382812 5.69308594 9.42765625 6.40429688 9.1328125 C9.41545674 7.91089256 11.71886984 7 15 7 C15 6.34 15 5.68 15 5 C9.98952275 4.83015331 6.61361192 4.89092026 2 7 C1.01 7 0.02 7 -1 7 C-1 6.34 -1 5.68 -1 5 C-0.34 4.67 0.32 4.34 1 4 C0.67 2.68 0.34 1.36 0 0 Z " fill="#F4E3E0" transform="translate(20,54)"/>
<path d="M0 0 C1.32 0 2.64 0 4 0 C3.45982874 5.80684105 1.81616046 11.0730968 0.0546875 16.62109375 C-1.430382 21.37881641 -2.72557581 26.18229036 -4 31 C-5.32 31.33 -6.64 31.66 -8 32 C-6.76628476 24.95483665 -4.96079941 18.15892634 -2.953125 11.296875 C-1.86998529 7.55027698 -0.91001932 3.79174718 0 0 Z " fill="#394B8B" transform="translate(87,37)"/>
<path d="M0 0 C0.66 0 1.32 0 2 0 C1.85866501 1.77119803 1.71176792 3.54195287 1.5625 5.3125 C1.48128906 6.29863281 1.40007813 7.28476562 1.31640625 8.30078125 C1 11 1 11 0 14 C-0.42882965 17.33694329 -0.81167801 20.67367355 -1.16210938 24.01953125 C-1.6159096 27.98198199 -2.30412619 31.38118977 -4 35 C-5.65 34.67 -7.3 34.34 -9 34 C-9.75 32.25 -9.75 32.25 -10 30 C-9.4225 29.443125 -8.845 28.88625 -8.25 28.3125 C-1.62016766 21.49850565 -1.45923419 9.01413463 0 0 Z " fill="#E79341" transform="translate(22,15)"/>
<path d="M0 0 C2.375 0.875 2.375 0.875 4.375 2.875 C5.08908334 4.85856483 5.76117742 6.85815437 6.375 8.875 C3.28690305 10.63962683 2.14187864 10.875 -1.625 10.875 C-1.955 11.865 -2.285 12.855 -2.625 13.875 C-4.77395305 10.60485406 -6.5230727 7.85016452 -6.625 3.875 C-4.5896837 0.90030695 -3.67515029 -0.17500716 0 0 Z " fill="#28334F" transform="translate(37.625,34.125)"/>
<path d="M0 0 C1.4540625 0.0309375 1.4540625 0.0309375 2.9375 0.0625 C2.9375 1.7125 2.9375 3.3625 2.9375 5.0625 C3.5975 5.3925 4.2575 5.7225 4.9375 6.0625 C4.25 8 4.25 8 2.9375 10.0625 C-0.35677581 11.16059194 -1.72661172 11.17446276 -5.0625 10.0625 C-6.25 7.5 -6.25 7.5 -7.0625 5.0625 C-6.4025 5.0625 -5.7425 5.0625 -5.0625 5.0625 C-4.8459375 4.1034375 -4.8459375 4.1034375 -4.625 3.125 C-3.73376283 -0.14286963 -3.55757083 0.07260349 0 0 Z " fill="#26324E" transform="translate(65.0625,39.9375)"/>
<path d="M0 0 C0 0.66 0 1.32 0 2 C-5.61 3.98 -11.22 5.96 -17 8 C-17 5.69 -17 3.38 -17 1 C-16.071875 0.855625 -15.14375 0.71125 -14.1875 0.5625 C-8.64841846 -0.41498498 -5.63080864 -0.83077505 0 0 Z " fill="#D2636B" transform="translate(35,59)"/>
<path d="M0 0 C4.1234567 -0.06414266 7.67324969 -0.11500632 10.93359375 2.625 C12.39519212 4.3634959 13.74167663 6.11004765 15 8 C14.34 8.66 13.68 9.32 13 10 C8.73850721 9.84780383 5.9570262 6.75541078 3 4 C3 3.34 3 2.68 3 2 C2.01 1.67 1.02 1.34 0 1 C0 0.67 0 0.34 0 0 Z " fill="#D6666A" transform="translate(54,63)"/>
<path d="M0 0 C2.97 0.33 5.94 0.66 9 1 C7.25 6.75 7.25 6.75 5 9 C2.375 8.625 2.375 8.625 0 8 C0 5.36 0 2.72 0 0 Z " fill="#45354F" transform="translate(42,54)"/>
<path d="M0 0 C1.98 0.495 1.98 0.495 4 1 C4 3.64 4 6.28 4 9 C8.95 9.33 13.9 9.66 19 10 C19 10.33 19 10.66 19 11 C16.22890693 11.05392397 13.45886182 11.09363455 10.6875 11.125 C9.90181641 11.14175781 9.11613281 11.15851562 8.30664062 11.17578125 C7.54931641 11.18222656 6.79199219 11.18867188 6.01171875 11.1953125 C4.96697388 11.21102295 4.96697388 11.21102295 3.90112305 11.22705078 C2 11 2 11 -1 9 C-0.67 6.03 -0.34 3.06 0 0 Z " fill="#253562" transform="translate(27,15)"/>
<path d="M0 0 C6.27 0.33 12.54 0.66 19 1 C18.67 2.65 18.34 4.3 18 6 C15.55864621 5.77177997 13.12446469 5.51853605 10.6875 5.25 C9.99720703 5.188125 9.30691406 5.12625 8.59570312 5.0625 C6.57421875 4.828125 6.57421875 4.828125 3 4 C2.01 2.68 1.02 1.36 0 0 Z " fill="#41558F" transform="translate(27,25)"/>
<path d="M0 0 C2.8984375 -0.328125 2.8984375 -0.328125 6.375 -0.25 C7.51710938 -0.23453125 8.65921875 -0.2190625 9.8359375 -0.203125 C12.39949569 -0.03855089 14.55794741 0.25415143 17 1 C17 1.99 17 2.98 17 4 C10.73 3.67 4.46 3.34 -2 3 C-1.34 2.01 -0.68 1.02 0 0 Z " fill="#49189E" transform="translate(75,14)"/>
<path d="M0 0 C5.70939788 -0.45675183 8.55127459 0.37894444 13 4 C15.4294516 7.6441774 15.16179575 9.71241272 15 14 C14.34 14 13.68 14 13 14 C12.79375 12.9275 12.5875 11.855 12.375 10.75 C10.70828055 6.2044015 9.21126917 5.22949544 5 3 C3.35380887 2.28426473 1.69271945 1.5974304 0 1 C0 0.67 0 0.34 0 0 Z " fill="#F8C739" transform="translate(80,70)"/>
<path d="M0 0 C0.33 0.66 0.66 1.32 1 2 C-0.07507629 3.29854721 -1.16043736 4.58858361 -2.25 5.875 C-2.85328125 6.59429687 -3.4565625 7.31359375 -4.078125 8.0546875 C-5.97087634 9.97052118 -7.53657727 10.96449045 -10 12 C-9.938125 13.918125 -9.938125 13.918125 -9.875 15.875 C-9.8046875 18.0546875 -9.8046875 18.0546875 -10 20 C-10.66 20.66 -11.32 21.32 -12 22 C-13.03522833 18.53978477 -13.56266835 15.59084708 -13 12 C-10.72299417 9.44594403 -8.35174085 7.69331172 -5.515625 5.7890625 C-3.07531743 4.05356426 -1.63834509 2.47936223 0 0 Z " fill="#D6A54A" transform="translate(111,63)"/>
<path d="M0 0 C0.04254356 1.99954746 0.04080783 4.00041636 0 6 C-1 7 -1 7 -3.4375 7.1875 C-6 7 -6 7 -8 5 C-8 4.01 -8 3.02 -8 2 C-5.09399739 0.74335022 -3.20395416 0 0 0 Z " fill="#F2EAE6" transform="translate(44,43)"/>
<path d="M0 0 C2.54724036 2.28373274 3.93499489 3.83235523 5.1875 7.0625 C7.82273077 11.33339125 11.285711 11.87331458 16 13 C16 13.33 16 13.66 16 14 C7.68823125 14.15984171 7.68823125 14.15984171 5 13 C3.515625 10.56640625 3.515625 10.56640625 2.25 7.5625 C1.82203125 6.57378906 1.3940625 5.58507812 0.953125 4.56640625 C0 2 0 2 0 0 Z " fill="#DAA948" transform="translate(11,80)"/>
<path d="M0 0 C2.475 0.495 2.475 0.495 5 1 C5.625 2.8125 5.625 2.8125 6 5 C5.01 6.485 5.01 6.485 4 8 C3.34 8 2.68 8 2 8 C0.23537317 4.91190305 0 3.76687864 0 0 Z " fill="#F1E7E3" transform="translate(54,45)"/>
<path d="M0 0 C-0.6875 2.4375 -0.6875 2.4375 -2 5 C-4.625 5.8125 -4.625 5.8125 -7 6 C-7.33 4.35 -7.66 2.7 -8 1 C-3.375 -1.125 -3.375 -1.125 0 0 Z " fill="#D7696E" transform="translate(83,38)"/>
<path d="M0 0 C0.66 0.33 1.32 0.66 2 1 C2 1.66 2 2.32 2 3 C3.9600281 4.63676257 3.9600281 4.63676257 6 6 C4.56163249 5.88541307 3.12429034 5.75790884 1.6875 5.625 C0.88699219 5.55539063 0.08648437 5.48578125 -0.73828125 5.4140625 C-3 5 -3 5 -6 3 C-4.03533587 1.93224776 -2.03144641 0.93446535 0 0 Z " fill="#283263" transform="translate(21,9)"/>
<path d="M0 0 C1.32 0 2.64 0 4 0 C4 0.99 4 1.98 4 3 C7.63 3 11.26 3 15 3 C11.25631258 4.87184371 10.1599209 5.23999767 6.25 5.125 C5.45078125 5.10695313 4.6515625 5.08890625 3.828125 5.0703125 C3.22484375 5.04710938 2.6215625 5.02390625 2 5 C1.34 3.35 0.68 1.7 0 0 Z " fill="#BEA361" transform="translate(69,66)"/>
<path d="M0 0 C0.99 0 1.98 0 3 0 C2.34 3.3 1.68 6.6 1 10 C0.01 9.67 -0.98 9.34 -2 9 C-1.34 6.03 -0.68 3.06 0 0 Z " fill="#E5D8DB" transform="translate(61,22)"/>
<path d="M0 0 C1.41377341 2.63904371 2.37240135 5.07120629 3 8 C1.68 7.67 0.36 7.34 -1 7 C-1.625 4.625 -1.625 4.625 -2 2 C-1.34 1.34 -0.68 0.68 0 0 Z " fill="#CC6268" transform="translate(53,45)"/>
<path d="M0 0 C1.32 0 2.64 0 4 0 C3.67 1.65 3.34 3.3 3 5 C1.68 4.67 0.36 4.34 -1 4 C-0.67 2.68 -0.34 1.36 0 0 Z " fill="#FFF2E0" transform="translate(77,78)"/>
<path d="M0 0 C2.475 0.495 2.475 0.495 5 1 C4.67 2.32 4.34 3.64 4 5 C2.68 4.67 1.36 4.34 0 4 C0 2.68 0 1.36 0 0 Z " fill="#FFF1DF" transform="translate(68,78)"/>
<path d="M0 0 C0 0.99 0 1.98 0 3 C-6.93 2.505 -6.93 2.505 -14 2 C-14 1.67 -14 1.34 -14 1 C-12.41693353 0.83081732 -10.83353281 0.66476064 -9.25 0.5 C-8.36828125 0.4071875 -7.4865625 0.314375 -6.578125 0.21875 C-4 0 -4 0 0 0 Z " fill="#532EB0" transform="translate(92,15)"/>
<path d="M0 0 C2.475 0.495 2.475 0.495 5 1 C4.34 2.32 3.68 3.64 3 5 C2.01 4.67 1.02 4.34 0 4 C0 2.68 0 1.36 0 0 Z " fill="#FFF5E7" transform="translate(85,78)"/>
<path d="M0 0 C2.475 0.495 2.475 0.495 5 1 C4.34 2.32 3.68 3.64 3 5 C2.01 4.67 1.02 4.34 0 4 C0 2.68 0 1.36 0 0 Z " fill="#DF7B87" transform="translate(43,57)"/>
<path d="M0 0 C2.64 0.33 5.28 0.66 8 1 C8 1.66 8 2.32 8 3 C5.36 3 2.72 3 0 3 C0 2.01 0 1.02 0 0 Z " fill="#272A46" transform="translate(43,54)"/>
<path d="M0 0 C0.99 0.99 1.98 1.98 3 3 C2.34 4.65 1.68 6.3 1 8 C0.34 8 -0.32 8 -1 8 C-0.67 5.36 -0.34 2.72 0 0 Z " fill="#CA687A" transform="translate(26,27)"/>
</svg>
