<?xml version="1.0" encoding="UTF-8"?>
<svg version="1.1" xmlns="http://www.w3.org/2000/svg" width="150" height="138">
<path d="M0 0 C49.5 0 99 0 150 0 C150 45.54 150 91.08 150 138 C100.5 138 51 138 0 138 C0 92.46 0 46.92 0 0 Z " fill="#FEFEFE" transform="translate(0,0)"/>
<path d="M0 0 C3.33977094 3.72145905 4.10301453 7.45209153 4.3125 12.375 C4.27125 13.055625 4.23 13.73625 4.1875 14.4375 C4.8475 14.4375 5.5075 14.4375 6.1875 14.4375 C6.12239583 16.42317708 6.05729167 18.40885417 5.9921875 20.39453125 C6.05495538 22.75109719 6.05495538 22.75109719 8.1875 25.4375 C8.51477273 30.78295455 8.51477273 30.78295455 7.1875 33.4375 C9.0128125 33.7778125 9.0128125 33.7778125 10.875 34.125 C15.20806146 35.19113111 17.14822092 37.15827783 20.1875 40.4375 C21.198125 40.9325 22.20875 41.4275 23.25 41.9375 C26.65762398 43.67756331 28.15968388 45.20801507 30.1875 48.4375 C30.9375 51.75 30.9375 51.75 31.1875 54.4375 C29.5375 54.4375 27.8875 54.4375 26.1875 54.4375 C26.1875 55.7575 26.1875 57.0775 26.1875 58.4375 C32.4575 58.7675 38.7275 59.0975 45.1875 59.4375 C45.68365385 72.70961538 45.68365385 72.70961538 43.171875 76.39453125 C42.51703125 77.06871094 41.8621875 77.74289063 41.1875 78.4375 C45.1475 78.7675 49.1075 79.0975 53.1875 79.4375 C53.1875 79.7675 53.1875 80.0975 53.1875 80.4375 C52.13633499 80.4529612 52.13633499 80.4529612 51.06393433 80.46873474 C44.44346151 80.56691787 37.82307203 80.66946086 31.20274162 80.77683926 C27.79958036 80.83188466 24.39641027 80.88527398 20.99316406 80.93481445 C17.07608668 80.99190857 13.15914573 81.05632119 9.2421875 81.12109375 C7.41843094 81.14616249 7.41843094 81.14616249 5.55783081 81.17173767 C4.41710114 81.19168289 3.27637146 81.21162811 2.10107422 81.23217773 C0.60216141 81.25549416 0.60216141 81.25549416 -0.92703247 81.27928162 C-3.94991205 81.44503469 -6.83455768 81.90480002 -9.8125 82.4375 C-13.66303204 82.66677862 -17.1131171 82.67062763 -20.8125 81.4375 C-23.0950699 81.28604901 -25.38137706 81.18863021 -27.66796875 81.12109375 C-28.66042351 81.0899221 -28.66042351 81.0899221 -29.67292786 81.05812073 C-31.78184852 80.99285273 -33.89089135 80.93384656 -36 80.875 C-37.43165315 80.83179311 -38.86329404 80.78817812 -40.29492188 80.74414062 C-43.80065154 80.63719494 -47.30651786 80.53586359 -50.8125 80.4375 C-50.8125 80.1075 -50.8125 79.7775 -50.8125 79.4375 C-48.3375 78.9425 -48.3375 78.9425 -45.8125 78.4375 C-45.915625 77.53 -46.01875 76.6225 -46.125 75.6875 C-46.16459922 70.81679539 -44.02878566 66.83820317 -42.00390625 62.5 C-40.67466093 59.44461099 -40.67466093 59.44461099 -40.3671875 56.015625 C-39.73843944 51.95975725 -38.27664363 48.76615319 -36.375 45.1875 C-36.06240234 44.57648438 -35.74980469 43.96546875 -35.42773438 43.3359375 C-34.01106805 40.59245684 -32.52699672 38.00924507 -30.8125 35.4375 C-31.8025 33.4575 -32.7925 31.4775 -33.8125 29.4375 C-35.03151001 29.39991577 -35.03151001 29.39991577 -36.27514648 29.36157227 C-39.93360752 29.24600882 -43.59178528 29.12310416 -47.25 29 C-48.52939453 28.96068359 -49.80878906 28.92136719 -51.12695312 28.88085938 C-52.34189453 28.83896484 -53.55683594 28.79707031 -54.80859375 28.75390625 C-55.93450928 28.71724854 -57.0604248 28.68059082 -58.22045898 28.64282227 C-60.8125 28.4375 -60.8125 28.4375 -61.8125 27.4375 C-61.91149523 25.88794441 -61.94329524 24.33396327 -61.9453125 22.78125 C-61.94660156 21.84152344 -61.94789062 20.90179688 -61.94921875 19.93359375 C-61.94535156 18.94488281 -61.94148438 17.95617187 -61.9375 16.9375 C-61.94136719 15.94878906 -61.94523437 14.96007812 -61.94921875 13.94140625 C-61.94792969 13.00167969 -61.94664063 12.06195313 -61.9453125 11.09375 C-61.94418457 10.22556641 -61.94305664 9.35738281 -61.94189453 8.46289062 C-61.8125 6.4375 -61.8125 6.4375 -60.8125 5.4375 C-58.38759629 5.32427566 -55.99223138 5.27333125 -53.56640625 5.26953125 C-52.47693947 5.26453865 -52.47693947 5.26453865 -51.36546326 5.25944519 C-49.82624954 5.25437325 -48.2870248 5.25203695 -46.74780273 5.25219727 C-44.38832529 5.25001234 -42.02931639 5.23186435 -39.66992188 5.21289062 C-38.17708494 5.20995648 -36.68424577 5.20797183 -35.19140625 5.20703125 C-34.12884361 5.19625298 -34.12884361 5.19625298 -33.04481506 5.18525696 C-28.04132337 5.20867663 -28.04132337 5.20867663 -25.8125 7.4375 C-25.58544922 9.50048828 -25.58544922 9.50048828 -25.6171875 12.0078125 C-25.62363281 12.90371094 -25.63007812 13.79960938 -25.63671875 14.72265625 C-25.65347656 15.65980469 -25.67023437 16.59695312 -25.6875 17.5625 C-25.69652344 18.50738281 -25.70554688 19.45226562 -25.71484375 20.42578125 C-25.73845478 22.76327292 -25.77138484 25.10026123 -25.8125 27.4375 C-26.8025 27.7675 -27.7925 28.0975 -28.8125 28.4375 C-28.3175 31.4075 -28.3175 31.4075 -27.8125 34.4375 C-27.1525 34.4375 -26.4925 34.4375 -25.8125 34.4375 C-25.72685791 33.74188965 -25.64121582 33.0462793 -25.55297852 32.32958984 C-25.16163151 29.15706307 -24.76833358 25.98478106 -24.375 22.8125 C-24.24029297 21.71808594 -24.10558594 20.62367187 -23.96679688 19.49609375 C-23.83466797 18.43261719 -23.70253906 17.36914062 -23.56640625 16.2734375 C-23.38573608 14.81236572 -23.38573608 14.81236572 -23.20141602 13.32177734 C-22.03196966 4.64893416 -22.03196966 4.64893416 -20.10546875 2.79296875 C-19.41066406 2.40753906 -18.71585938 2.02210937 -18 1.625 C-17.31292969 1.22667969 -16.62585937 0.82835937 -15.91796875 0.41796875 C-10.70815479 -2.00812272 -5.17415485 -2.87453047 0 0 Z " fill="#4312A1" transform="translate(75.8125,35.5625)"/>
<path d="M0 0 C2.33333333 2.33333333 4.66666667 4.66666667 7 7 C9.95409701 5.62845496 12.44008376 4.01136276 15 2 C15.495 2.495 15.495 2.495 16 3 C17.41327947 3.15620555 18.8335459 3.25056173 20.25390625 3.31640625 C21.10791016 3.35830078 21.96191406 3.40019531 22.84179688 3.44335938 C23.73962891 3.48267578 24.63746094 3.52199219 25.5625 3.5625 C26.46419922 3.60568359 27.36589844 3.64886719 28.29492188 3.69335938 C30.52978485 3.79978142 32.76476308 3.90179988 35 4 C35.10853983 6.22808159 35.18583307 8.45769932 35.25 10.6875 C35.29640625 11.92886719 35.3428125 13.17023438 35.390625 14.44921875 C34.94119343 18.53455169 33.82179677 20.09488246 31 23 C34.96 23.33 38.92 23.66 43 24 C43 24.33 43 24.66 43 25 C42.29922333 25.01030746 41.59844666 25.02061493 40.87643433 25.03123474 C34.25596151 25.12941787 27.63557203 25.23196086 21.01524162 25.33933926 C17.61208036 25.39438466 14.20891027 25.44777398 10.80566406 25.49731445 C6.88858668 25.55440857 2.97164573 25.61882119 -0.9453125 25.68359375 C-2.76906906 25.70866249 -2.76906906 25.70866249 -4.62966919 25.73423767 C-6.3407637 25.7641555 -6.3407637 25.7641555 -8.08642578 25.79467773 C-9.58533859 25.81799416 -9.58533859 25.81799416 -11.11453247 25.84178162 C-14.13741205 26.00753469 -17.02205768 26.46730002 -20 27 C-23.85053204 27.22927862 -27.3006171 27.23312763 -31 26 C-33.2825699 25.84854901 -35.56887706 25.75113021 -37.85546875 25.68359375 C-38.51710526 25.66281265 -39.17874176 25.64203156 -39.86042786 25.62062073 C-41.96934852 25.55535273 -44.07839135 25.49634656 -46.1875 25.4375 C-47.61915315 25.39429311 -49.05079404 25.35067812 -50.48242188 25.30664062 C-53.98815154 25.19969494 -57.49401786 25.09836359 -61 25 C-61 24.67 -61 24.34 -61 24 C-59.35 23.67 -57.7 23.34 -56 23 C-56.103125 22.0925 -56.20625 21.185 -56.3125 20.25 C-56.36547283 13.80055797 -52.82614676 7.65229352 -50 2 C-47.72316722 3.05710093 -45.89022008 4.08981993 -43.9375 5.6875 C-43.298125 6.120625 -42.65875 6.55375 -42 7 C-41.01 6.67 -40.02 6.34 -39 6 C-38.67 5.01 -38.34 4.02 -38 3 C-35.65454672 5.34545328 -35.04491112 6.95985838 -34.90234375 10.26171875 C-34.93489583 12.5078125 -34.96744792 14.75390625 -35 17 C-31.37 17.33 -27.74 17.66 -24 18 C-24.495 16.02 -24.495 16.02 -25 14 C-24.34 14.33 -23.68 14.66 -23 15 C-23 15.66 -23 16.32 -23 17 C-22.071875 16.938125 -21.14375 16.87625 -20.1875 16.8125 C-19.135625 16.874375 -18.08375 16.93625 -17 17 C-16.5771875 17.495 -16.154375 17.99 -15.71875 18.5 C-13.07483473 20.80741697 -10.73770288 20.2892387 -7.3125 20.1875 C-6.13300781 20.16042969 -4.95351562 20.13335937 -3.73828125 20.10546875 C-2.38283203 20.05326172 -2.38283203 20.05326172 -1 20 C-1.495 19.01 -1.495 19.01 -2 18 C-2.56699607 11.76304324 -1.59233716 6.01391625 0 0 Z " fill="#CF915B" transform="translate(86,91)"/>
<path d="M0 0 C0.82290527 0.00202423 1.64581055 0.00404846 2.49365234 0.00613403 C3.33331543 0.00517731 4.17297852 0.00422058 5.03808594 0.00323486 C6.81689529 0.00255306 8.59570712 0.00440737 10.37451172 0.00857544 C13.10699011 0.01392371 15.83930411 0.00863048 18.57177734 0.00222778 C20.29573604 0.00288856 22.01969464 0.00416973 23.74365234 0.00613403 C24.56655762 0.0041098 25.38946289 0.00208557 26.23730469 0 C32.0037018 0.02399599 32.0037018 0.02399599 33.11865234 1.13894653 C33.21811687 2.90753846 33.24945452 4.68006104 33.25146484 6.45144653 C33.25339844 8.06406372 33.25339844 8.06406372 33.25537109 9.70925903 C33.25150391 10.84105591 33.24763672 11.97285278 33.24365234 13.13894653 C33.24945313 14.83664185 33.24945313 14.83664185 33.25537109 16.56863403 C33.25408203 17.64371216 33.25279297 18.71879028 33.25146484 19.82644653 C33.25033691 20.82031372 33.24920898 21.81418091 33.24804688 22.83816528 C33.11865234 25.13894653 33.11865234 25.13894653 32.11865234 26.13894653 C29.82713817 26.22685628 27.5329271 26.24588692 25.23974609 26.23660278 C24.20975243 26.23448036 24.20975243 26.23448036 23.15895081 26.23231506 C20.95797433 26.22670132 18.75709826 26.2141466 16.55615234 26.20144653 C15.06722152 26.1964333 13.5782891 26.19187009 12.08935547 26.18777466 C8.4324216 26.17672746 4.77554676 26.15945366 1.11865234 26.13894653 C0.80927734 27.08769653 0.49990234 28.03644653 0.18115234 29.01394653 C-0.88134766 32.13894653 -0.88134766 32.13894653 -1.88134766 34.13894653 C-2.54134766 34.13894653 -3.20134766 34.13894653 -3.88134766 34.13894653 C-3.88134766 31.49894653 -3.88134766 28.85894653 -3.88134766 26.13894653 C-4.87134766 25.80894653 -5.86134766 25.47894653 -6.88134766 25.13894653 C-6.91021749 21.15979494 -6.92810172 17.18067 -6.94384766 13.20144653 C-6.95222656 12.06513794 -6.96060547 10.92882935 -6.96923828 9.75808716 C-6.97246094 8.67849731 -6.97568359 7.59890747 -6.97900391 6.48660278 C-6.98424072 5.48637085 -6.98947754 4.48613892 -6.99487305 3.45559692 C-6.76957263 -1.14198521 -3.93661554 0.01638163 0 0 Z " fill="#D71E61" transform="translate(87.88134765625,12.861053466796875)"/>
<path d="M0 0 C1.08946678 -0.0049926 1.08946678 -0.0049926 2.20094299 -0.01008606 C3.74015671 -0.015158 5.27938145 -0.0174943 6.81860352 -0.01733398 C9.17808096 -0.01951891 11.53708986 -0.0376669 13.89648438 -0.05664062 C15.38932131 -0.05957477 16.88216048 -0.06155942 18.375 -0.0625 C19.43756264 -0.07327827 19.43756264 -0.07327827 20.52159119 -0.08427429 C25.52508288 -0.06085462 25.52508288 -0.06085462 27.75390625 2.16796875 C27.98095703 4.23095703 27.98095703 4.23095703 27.94921875 6.73828125 C27.94277344 7.63417969 27.93632813 8.53007813 27.9296875 9.453125 C27.91292969 10.39027344 27.89617188 11.32742187 27.87890625 12.29296875 C27.86988281 13.23785156 27.86085937 14.18273438 27.8515625 15.15625 C27.82795147 17.49374167 27.79502141 19.83072998 27.75390625 22.16796875 C26.76390625 22.49796875 25.77390625 22.82796875 24.75390625 23.16796875 C24.75390625 25.47796875 24.75390625 27.78796875 24.75390625 30.16796875 C24.09390625 30.16796875 23.43390625 30.16796875 22.75390625 30.16796875 C21.76390625 28.18796875 20.77390625 26.20796875 19.75390625 24.16796875 C18.53489624 24.13038452 18.53489624 24.13038452 17.29125977 24.09204102 C13.63279873 23.97647757 9.97462097 23.85357291 6.31640625 23.73046875 C5.03701172 23.69115234 3.75761719 23.65183594 2.43945312 23.61132812 C1.22451172 23.56943359 0.00957031 23.52753906 -1.2421875 23.484375 C-2.36810303 23.44771729 -3.49401855 23.41105957 -4.65405273 23.37329102 C-7.24609375 23.16796875 -7.24609375 23.16796875 -8.24609375 22.16796875 C-8.34508898 20.61841316 -8.37688899 19.06443202 -8.37890625 17.51171875 C-8.38019531 16.57199219 -8.38148437 15.63226563 -8.3828125 14.6640625 C-8.37894531 13.67535156 -8.37507812 12.68664062 -8.37109375 11.66796875 C-8.37496094 10.67925781 -8.37882813 9.69054687 -8.3828125 8.671875 C-8.38152344 7.73214844 -8.38023438 6.79242188 -8.37890625 5.82421875 C-8.37777832 4.95603516 -8.37665039 4.08785156 -8.37548828 3.19335938 C-8.08093359 -1.41725511 -3.61202165 0.00565815 0 0 Z " fill="#F76909" transform="translate(22.24609375,40.83203125)"/>
<path d="M0 0 C5.97031739 0.29123499 8.894534 3.02814384 13 7 C13.53625 6.319375 14.0725 5.63875 14.625 4.9375 C17 3 17 3 20 2.9375 C23.6936623 4.24567207 24.90301629 5.73802534 27 9 C29.03218754 15.09656262 29.1509104 23.11479452 26.6875 29.125 C23.86448598 33.93457944 23.86448598 33.93457944 22 35 C18.5 35.0625 18.5 35.0625 15 34 C13.98308736 32.00854609 12.98357352 30.00812926 12 28 C10.906875 27.690625 9.81375 27.38125 8.6875 27.0625 C3.21335745 25.48520469 0.74285164 21.8573282 -2.1484375 17.1171875 C-3.208993 14.48039354 -3.30080717 12.3374593 -3.3125 9.5 C-3.32925781 8.5615625 -3.34601563 7.623125 -3.36328125 6.65625 C-2.94768059 3.61744947 -2.01958576 2.25937827 0 0 Z " fill="#5AA18A" transform="translate(95,51)"/>
<path d="M0 0 C1.28841797 -0.00128906 2.57683594 -0.00257812 3.90429688 -0.00390625 C4.5769458 -0.00181152 5.24959473 0.0002832 5.94262695 0.00244141 C7.9924259 0.00778259 10.04200484 0.00249704 12.09179688 -0.00390625 C14.02635742 -0.00197266 14.02635742 -0.00197266 16 0 C17.18650146 0.00112793 18.37300293 0.00225586 19.59545898 0.00341797 C22.56640625 0.1328125 22.56640625 0.1328125 25.56640625 1.1328125 C29.31150265 1.25560255 32.6386819 1.30138561 36.32473755 0.63160706 C39.50072621 0.14291867 42.45324915 0.012398 45.66357422 0.01928711 C46.8443454 0.01936264 48.02511658 0.01943817 49.2416687 0.01951599 C51.1310466 0.02725792 51.1310466 0.02725792 53.05859375 0.03515625 C54.35967072 0.0365712 55.66074768 0.03798615 57.00125122 0.03944397 C60.44370478 0.04324406 63.8861155 0.05305267 67.32855225 0.06414795 C70.84793519 0.07441625 74.36732512 0.07895316 77.88671875 0.08398438 C84.77996541 0.09467741 91.67318377 0.11172339 98.56640625 0.1328125 C98.56640625 1.7828125 98.56640625 3.4328125 98.56640625 5.1328125 C96.26122485 6.2854032 94.95539916 6.26088934 92.39111328 6.26652527 C91.51618225 6.27079025 90.64125122 6.27505524 89.73980713 6.27944946 C88.77766296 6.27899628 87.8155188 6.27854309 86.82421875 6.27807617 C85.81276794 6.28143478 84.80131714 6.2847934 83.75921631 6.28825378 C80.40326726 6.29778214 77.04736799 6.29970773 73.69140625 6.30078125 C71.36735005 6.30399213 69.04329405 6.30735607 66.71923828 6.31086731 C61.84341971 6.31686303 56.96761888 6.31870672 52.09179688 6.31811523 C45.83008234 6.3180135 39.56848091 6.33167571 33.30679321 6.34888744 C28.50626091 6.35997982 23.70575621 6.36203531 18.9052124 6.36150551 C16.59584157 6.36268942 14.2864701 6.36713403 11.97711182 6.37483788 C8.75419068 6.38458367 5.53151849 6.38178138 2.30859375 6.37573242 C1.34644958 6.38135193 0.38430542 6.38697144 -0.60699463 6.39276123 C-1.91939117 6.3864695 -1.91939117 6.3864695 -3.25830078 6.38005066 C-4.02079132 6.38059543 -4.78328186 6.38114019 -5.56887817 6.38170147 C-7.43359375 6.1328125 -7.43359375 6.1328125 -9.43359375 4.1328125 C-9.10359375 3.1428125 -8.77359375 2.1528125 -8.43359375 1.1328125 C-5.59180635 -0.2880812 -3.1737563 0.00301995 0 0 Z " fill="#F2F2F1" transform="translate(32.43359375,115.8671875)"/>
<path d="M0 0 C2.55600599 2.55600599 3.09768627 3.33617949 3.22265625 6.9453125 C3.21105469 8.03585938 3.19945313 9.12640625 3.1875 10.25 C3.17847656 11.34570312 3.16945313 12.44140625 3.16015625 13.5703125 C3.14855469 14.41335937 3.13695313 15.25640625 3.125 16.125 C2.465 16.125 1.805 16.125 1.125 16.125 C-0.5 13.625 -0.5 13.625 -1.875 11.125 C-4.04374252 11.63103992 -5.87467627 12.12483813 -7.875 13.125 C-10.5473621 13.25915472 -13.19750488 13.16818541 -15.875 13.125 C-15.875 13.785 -15.875 14.445 -15.875 15.125 C-13.565 15.125 -11.255 15.125 -8.875 15.125 C-8.875 15.785 -8.875 16.445 -8.875 17.125 C-11.515 17.125 -14.155 17.125 -16.875 17.125 C-16.4197307 22.49717774 -15.73908739 25.51755507 -12.875 30.125 C-12.625 32.875 -12.625 32.875 -12.875 35.125 C-13.875 36.125 -13.875 36.125 -16.59765625 36.22265625 C-17.69980469 36.21105469 -18.80195312 36.19945312 -19.9375 36.1875 C-21.04222656 36.17847656 -22.14695313 36.16945312 -23.28515625 36.16015625 C-24.56712891 36.14275391 -24.56712891 36.14275391 -25.875 36.125 C-25.31804563 30.02781529 -24.63021327 23.9503335 -23.875 17.875 C-23.7920166 17.20210937 -23.7090332 16.52921875 -23.62353516 15.8359375 C-23.38400742 13.93100967 -23.12978786 12.02794685 -22.875 10.125 C-22.76800781 9.03316406 -22.66101562 7.94132812 -22.55078125 6.81640625 C-21.875 4.125 -21.875 4.125 -20.16796875 2.48046875 C-19.47316406 2.09503906 -18.77835938 1.70960937 -18.0625 1.3125 C-17.37542969 0.91417969 -16.68835937 0.51585937 -15.98046875 0.10546875 C-10.68741162 -2.35938717 -5.06843287 -3.3054997 0 0 Z " fill="#2A1911" transform="translate(75.875,35.875)"/>
<path d="M0 0 C2.27683278 1.05710093 4.10977992 2.08981993 6.0625 3.6875 C6.701875 4.120625 7.34125 4.55375 8 5 C8.99 4.67 9.98 4.34 11 4 C11.33 3.01 11.66 2.02 12 1 C14.34545328 3.34545328 14.95508888 4.95985838 15.09765625 8.26171875 C15.06510417 10.5078125 15.03255208 12.75390625 15 15 C20.445 15.495 20.445 15.495 26 16 C25.505 14.02 25.505 14.02 25 12 C25.66 12.33 26.32 12.66 27 13 C27 13.66 27 14.32 27 15 C27.928125 14.938125 28.85625 14.87625 29.8125 14.8125 C33 15 33 15 34.6875 16.375 C35.120625 16.91125 35.55375 17.4475 36 18 C36.99 18.66 37.98 19.32 39 20 C38.34 20 37.68 20 37 20 C37 20.66 37 21.32 37 22 C34.62492145 22.02719556 32.25016036 22.04693247 29.875 22.0625 C28.87726563 22.07506836 28.87726563 22.07506836 27.859375 22.08789062 C23.79318646 22.10782292 19.9879908 21.78890161 16 21 C16 21.66 16 22.32 16 23 C7.09 23 -1.82 23 -11 23 C-11 22.67 -11 22.34 -11 22 C-9.35 21.67 -7.7 21.34 -6 21 C-6.103125 20.0925 -6.20625 19.185 -6.3125 18.25 C-6.36547283 11.80055797 -2.82614676 5.65229352 0 0 Z " fill="#E0975A" transform="translate(36,93)"/>
<path d="M0 0 C0.33 0 0.66 0 1 0 C1 1.65 1 3.3 1 5 C1.66 5 2.32 5 3 5 C2.67 6.98 2.34 8.96 2 11 C1.34 11 0.68 11 0 11 C-0.309375 11.94875 -0.61875 12.8975 -0.9375 13.875 C-2 17 -2 17 -3 19 C-3.66 19 -4.32 19 -5 19 C-4.649375 19.721875 -4.29875 20.44375 -3.9375 21.1875 C-2.86740871 24.39777387 -2.83657949 25.84214433 -4 29 C-6.28828058 31.45778285 -7.66514349 31.95116676 -11 32.4375 C-14 32 -14 32 -16.4375 30.4375 C-18.62074056 27.03164473 -17.61708672 24.90821591 -17 21 C-17.9873454 19.32580562 -18.98812105 17.65948148 -20 16 C-20.26506708 13.27796502 -20.13953414 10.74417146 -20 8 C-17.36 8 -14.72 8 -12 8 C-12 7.34 -12 6.68 -12 6 C-14.31 6 -16.62 6 -19 6 C-19 5.34 -19 4.68 -19 4 C-17.98679688 3.80083984 -17.98679688 3.80083984 -16.953125 3.59765625 C-15.61507812 3.33275391 -15.61507812 3.33275391 -14.25 3.0625 C-13.36828125 2.88847656 -12.4865625 2.71445312 -11.578125 2.53515625 C-9.36764947 2.07631512 -7.18487932 1.56663926 -5 1 C-2 4.75 -2 4.75 -2 7 C-1.34 7 -0.68 7 0 7 C0 4.69 0 2.38 0 0 Z " fill="#D98C48" transform="translate(79,45)"/>
<path d="M0 0 C5.61 0 11.22 0 17 0 C17.103125 2.3925 17.20625 4.785 17.3125 7.25 C17.38078003 8.37003418 17.38078003 8.37003418 17.45043945 9.51269531 C17.52760215 13.21451334 17.27094573 14.70663118 14.734375 17.453125 C10.63566091 19.77182612 8.66593517 19.5924997 4 19 C1.76953125 17.453125 1.76953125 17.453125 0 15 C-0.29449601 12.2317375 -0.38343363 9.98597978 -0.25 7.25 C-0.1675 4.8575 -0.085 2.465 0 0 Z " fill="#22130C" transform="translate(103,96)"/>
<path d="M0 0 C10.0546875 3.84570312 10.0546875 3.84570312 13 9 C13.75 12.3125 13.75 12.3125 14 15 C9.53618873 15.97937352 6.30070049 15.92741432 1.875 14.8125 C0.86179687 14.57144531 -0.15140625 14.33039063 -1.1953125 14.08203125 C-4.29130757 12.88761532 -5.84720292 11.48756217 -8 9 C-6.75023244 5.34683329 -6.32901247 4.21934164 -3 2 C-2.01 2 -1.02 2 0 2 C0 1.34 0 0.68 0 0 Z " fill="#579D89" transform="translate(93,75)"/>
<path d="M0 0 C2.69746447 1.22054694 3.91996078 1.89423388 5.75 4.3125 C7.96017889 10.83252772 8.30295485 18.63479722 5.6875 25.125 C3.18864775 29.38230384 3.18864775 29.38230384 1 31 C0.34 31 -0.32 31 -1 31 C-1.09776087 20.61562308 -1.1555538 10.33807949 0 0 Z " fill="#5EA992" transform="translate(116,55)"/>
<path d="M0 0 C3.78370766 3.0008716 4.86694261 5.95697212 6.20703125 10.4140625 C7.38108847 14.24276143 8.82301393 17.96690225 10.23046875 21.71484375 C11 24 11 24 11 26 C8.19171195 25.91740329 6.47599508 25.44224482 4.40234375 23.515625 C0.14920753 18.62504084 -2.28618556 15.08659743 -2.25 8.4375 C-2.25515625 7.48746094 -2.2603125 6.53742187 -2.265625 5.55859375 C-2 3 -2 3 0 0 Z " fill="#5DA991" transform="translate(94,52)"/>
<path d="M0 0 C4.58130845 4.49949937 9.04473632 9.25365396 12 15 C12 15.66 12 16.32 12 17 C3.21276596 19.38297872 3.21276596 19.38297872 -1 19 C-2.52384778 17.47615222 -2.16908901 16.12094628 -2.1875 14 C-2.14851868 9.14292726 -1.23915513 4.68002338 0 0 Z " fill="#F8F5F8" transform="translate(86,91)"/>
<path d="M0 0 C0.66 0 1.32 0 2 0 C4.8250196 3.69425641 5.50100249 6.39077706 5 11 C4.01 12.485 4.01 12.485 3 14 C0 14.3125 0 14.3125 -3 14 C-3.66 13.34 -4.32 12.68 -5 12 C-5 10.68 -5 9.36 -5 8 C-4.34 8 -3.68 8 -3 8 C-2.690625 7.05125 -2.38125 6.1025 -2.0625 5.125 C-1 2 -1 2 0 0 Z " fill="#2A1A11" transform="translate(79,56)"/>
<path d="M0 0 C10.0546875 3.84570312 10.0546875 3.84570312 13 9 C13.75 12.3125 13.75 12.3125 14 15 C12 14 12 14 11.3125 12.125 C9.32350139 8.90471653 6.50837194 7.96782674 3 7 C-0.3270863 6.49633628 -3.64160392 6.19596275 -7 6 C-5.1875 4 -5.1875 4 -3 2 C-2.01 2 -1.02 2 0 2 C0 1.34 0 0.68 0 0 Z " fill="#60A693" transform="translate(93,75)"/>
<path d="M0 0 C3.29714793 0.32971479 4.6226839 0.6226839 7 3 C6.43181818 8.56818182 6.43181818 8.56818182 5 10 C2.0625 10.25 2.0625 10.25 -1 10 C-3 7 -3 7 -2.75 4.4375 C-2 2 -2 2 0 0 Z " fill="#F4C2D4" transform="translate(110,20)"/>
<path d="M0 0 C2 2 2 2 2.1953125 4.6015625 C2.17210937 5.59929687 2.14890625 6.59703125 2.125 7.625 C2.10695313 8.62789062 2.08890625 9.63078125 2.0703125 10.6640625 C2.03550781 11.82035156 2.03550781 11.82035156 2 13 C-4.75 13.125 -4.75 13.125 -7 12 C-5.94124926 8.59687262 -4.99097846 5.98646769 -3 3 C-2.34 3 -1.68 3 -1 3 C-0.67 2.01 -0.34 1.02 0 0 Z " fill="#F8F5F8" transform="translate(48,94)"/>
<path d="M0 0 C0.99 0.33 1.98 0.66 3 1 C3.33 2.98 3.66 4.96 4 7 C4.99 5.02 5.98 3.04 7 1 C10 2 10 2 11.1875 4.375 C12 7 12 7 12 10 C11.34 10 10.68 10 10 10 C10 9.34 10 8.68 10 8 C8.68 8 7.36 8 6 8 C6 8.66 6 9.32 6 10 C4.02 10 2.04 10 0 10 C0 6.7 0 3.4 0 0 Z " fill="#F7D5E2" transform="translate(94,20)"/>
<path d="M0 0 C2.31 0 4.62 0 7 0 C7 1.65 7 3.3 7 5 C7.99 5 8.98 5 10 5 C10 3.68 10 2.36 10 1 C10.66 1 11.32 1 12 1 C12 2.65 12 4.3 12 6 C12.99 6.33 13.98 6.66 15 7 C10.05 7 5.1 7 0 7 C0 4.69 0 2.38 0 0 Z " fill="#FBB280" transform="translate(24,49)"/>
<path d="M0 0 C0.99 0.33 1.98 0.66 3 1 C3.99 6.28 4.98 11.56 6 17 C3.03 17 0.06 17 -3 17 C-3.33 16.34 -3.66 15.68 -4 15 C-3.67 14.01 -3.34 13.02 -3 12 C-1.35 12 0.3 12 2 12 C1.34 8.04 0.68 4.08 0 0 Z " fill="#CBCAC8" transform="translate(105,78)"/>
<path d="M0 0 C12.87 0.495 12.87 0.495 26 1 C26 1.33 26 1.66 26 2 C8.27272727 5.30909091 8.27272727 5.30909091 0 2 C0 1.34 0 0.68 0 0 Z " fill="#3C232C" transform="translate(52,114)"/>
<path d="M0 0 C0.99 0.495 0.99 0.495 2 1 C2 1.66 2 2.32 2 3 C3.65 3.33 5.3 3.66 7 4 C7 6.64 7 9.28 7 12 C5.68 12.33 4.36 12.66 3 13 C2.49242138 11.58603098 1.99425075 10.16868271 1.5 8.75 C1.08234375 7.56664063 1.08234375 7.56664063 0.65625 6.359375 C0 4 0 4 0 0 Z " fill="#F0F0EF" transform="translate(108,82)"/>
<path d="M0 0 C0.66 0.99 1.32 1.98 2 3 C1.34 3 0.68 3 0 3 C0.33 3.99 0.66 4.98 1 6 C-0.65 6.66 -2.3 7.32 -4 8 C-4.66 5.69 -5.32 3.38 -6 1 C-4.02 0.67 -2.04 0.34 0 0 Z " fill="#935C2E" transform="translate(76,50)"/>
<path d="M0 0 C1.4540625 0.0309375 1.4540625 0.0309375 2.9375 0.0625 C3.2675 1.0525 3.5975 2.0425 3.9375 3.0625 C2.2875 2.7325 0.6375 2.4025 -1.0625 2.0625 C-1.3925 3.7125 -1.7225 5.3625 -2.0625 7.0625 C-0.0825 6.7325 1.8975 6.4025 3.9375 6.0625 C2.9475 7.5475 2.9475 7.5475 1.9375 9.0625 C-0.6875 9.25 -0.6875 9.25 -3.0625 9.0625 C-4.42873674 6.33002652 -4.190926 4.08051098 -4.0625 1.0625 C-3.0625 0.0625 -3.0625 0.0625 0 0 Z " fill="#F7D7E3" transform="translate(89.0625,20.9375)"/>
<path d="M0 0 C0.33 0 0.66 0 1 0 C1 1.65 1 3.3 1 5 C1.66 5 2.32 5 3 5 C2.67 6.98 2.34 8.96 2 11 C0.35 10.67 -1.3 10.34 -3 10 C-3 9.34 -3 8.68 -3 8 C-2.34 7.67 -1.68 7.34 -1 7 C-0.59270772 4.67843403 -0.25561323 2.3431213 0 0 Z " fill="#DC9C63" transform="translate(79,45)"/>
<path d="M0 0 C0.99 0.33 1.98 0.66 3 1 C3.33 3.97 3.66 6.94 4 10 C2.68 10 1.36 10 0 10 C0 6.7 0 3.4 0 0 Z " fill="#EEA1BD" transform="translate(94,20)"/>
<path d="M0 0 C1.65 0 3.3 0 5 0 C5.33 1.65 5.66 3.3 6 5 C4.02 5 2.04 5 0 5 C-0.33 4.34 -0.66 3.68 -1 3 C-0.67 2.01 -0.34 1.02 0 0 Z " fill="#F9FAF9" transform="translate(102,90)"/>
<path d="M0 0 C1.65 0 3.3 0 5 0 C5 1.65 5 3.3 5 5 C3.0625 5.5625 3.0625 5.5625 1 6 C0 5 0 5 -0.0625 2.4375 C-0.041875 1.633125 -0.02125 0.82875 0 0 Z " fill="#FBB687" transform="translate(40,50)"/>
<path d="M0 0 C2.24064081 1.00849169 4.15109908 1.95184208 6.08984375 3.46875 C7.08984375 7.21875 7.08984375 7.21875 7.08984375 10.46875 C6.51234375 9.705625 5.93484375 8.9425 5.33984375 8.15625 C2.56668789 4.84386939 -0.33719883 2.85072161 -3.91015625 0.46875 C-1.91015625 -0.53125 -1.91015625 -0.53125 0 0 Z " fill="#E2EFEB" transform="translate(99.91015625,75.53125)"/>
<path d="M0 0 C0.99 0 1.98 0 3 0 C3.33 1.65 3.66 3.3 4 5 C2.35 5.33 0.7 5.66 -1 6 C-1.042721 4.33388095 -1.04063832 2.66617115 -1 1 C-0.67 0.67 -0.34 0.34 0 0 Z " fill="#D92B6A" transform="translate(111,22)"/>
<path d="M0 0 C-0.33 2.64 -0.66 5.28 -1 8 C-1.99 8.33 -2.98 8.66 -4 9 C-4.1875 5.625 -4.1875 5.625 -4 2 C-1 0 -1 0 0 0 Z " fill="#F1F0F0" transform="translate(51,62)"/>
<path d="M0 0 C0.33 0 0.66 0 1 0 C1 4.95 1 9.9 1 15 C0.01 15.495 0.01 15.495 -1 16 C-2.03038433 12.0585998 -1.87693282 9.16384848 -1.0625 5.1875 C-0.86785156 4.21167969 -0.67320313 3.23585938 -0.47265625 2.23046875 C-0.31667969 1.49441406 -0.16070312 0.75835937 0 0 Z " fill="#4C7E6B" transform="translate(106,62)"/>
<path d="M0 0 C2.6875 0.875 2.6875 0.875 5 2 C4.01 2.495 4.01 2.495 3 3 C2.67 3.99 2.34 4.98 2 6 C-1 5 -1 5 -3 2 C-2.01 1.34 -1.02 0.68 0 0 Z " fill="#C27533" transform="translate(67,60)"/>
<path d="M0 0 C0.33 0.66 0.66 1.32 1 2 C1.66 2 2.32 2 3 2 C3 1.34 3 0.68 3 0 C3.66 0 4.32 0 5 0 C5 1.98 5 3.96 5 6 C4.34 6 3.68 6 3 6 C3 5.01 3 4.02 3 3 C2.34 3 1.68 3 1 3 C0.67 3.99 0.34 4.98 0 6 C0 4.02 0 2.04 0 0 Z " fill="#FDD8C0" transform="translate(18,50)"/>
<path d="M0 0 C0.66 0 1.32 0 2 0 C2 1.65 2 3.3 2 5 C2.99 5.33 3.98 5.66 5 6 C2.36 5.67 -0.28 5.34 -3 5 C-2.01 4.67 -1.02 4.34 0 4 C0 2.68 0 1.36 0 0 Z " fill="#FBBB90" transform="translate(34,50)"/>
<path d="M0 0 C0.66 0 1.32 0 2 0 C2.268125 0.78375 2.53625 1.5675 2.8125 2.375 C3.84814432 5.28114923 3.84814432 5.28114923 7 7 C4.625 7.1875 4.625 7.1875 2 7 C0 4 0 4 0 0 Z " fill="#F8DAE5" transform="translate(107,23)"/>
<path d="M0 0 C2.97 0.495 2.97 0.495 6 1 C4.515 2.485 4.515 2.485 3 4 C2.01 3.67 1.02 3.34 0 3 C0 2.01 0 1.02 0 0 Z " fill="#C4671A" transform="translate(71,54)"/>
</svg>
