<?xml version="1.0" encoding="UTF-8"?>
<svg version="1.1" xmlns="http://www.w3.org/2000/svg" width="77" height="63">
<path d="M0 0 C25.41 0 50.82 0 77 0 C77 20.79 77 41.58 77 63 C51.59 63 26.18 63 0 63 C0 42.21 0 21.42 0 0 Z " fill="#03B4AD" transform="translate(0,0)"/>
<path d="M0 0 C0 1.65 0 3.3 0 5 C1.16917969 4.93039063 2.33835937 4.86078125 3.54296875 4.7890625 C5.09108821 4.73276725 6.63927002 4.67816898 8.1875 4.625 C8.95642578 4.57472656 9.72535156 4.52445313 10.51757812 4.47265625 C16.15550669 4.32747354 16.15550669 4.32747354 18.66650391 6.32714844 C22 10.26149691 22 10.26149691 22 12 C14.74 12 7.48 12 0 12 C0 14.31 0 16.62 0 19 C8.58 19 17.16 19 26 19 C26.50344039 29.27018405 26.42651255 36.92900853 19.35546875 44.83984375 C13.40613802 50.3325667 7.11916811 52.57718039 -0.9375 52.5 C-1.64189209 52.49355469 -2.34628418 52.48710938 -3.07202148 52.48046875 C-9.02495324 52.27084391 -12.73547354 51.10510491 -17 47 C-17.63421875 46.40703125 -18.2684375 45.8140625 -18.921875 45.203125 C-24.27342548 39.67466376 -27.12497489 33.69061414 -27.1875 25.9375 C-27.0946875 24.4834375 -27.0946875 24.4834375 -27 23 C-26.34 22.67 -25.68 22.34 -25 22 C-24.34 22.33 -23.68 22.66 -23 23 C-23.144375 22.4225 -23.28875 21.845 -23.4375 21.25 C-23.623125 20.5075 -23.80875 19.765 -24 19 C-24.23332031 18.37738281 -24.46664063 17.75476563 -24.70703125 17.11328125 C-25 15 -25 15 -23.890625 12.96484375 C-23.34921875 12.29582031 -22.8078125 11.62679688 -22.25 10.9375 C-21.45335937 9.93009766 -21.45335937 9.93009766 -20.640625 8.90234375 C-17.52030255 5.28425557 -17.52030255 5.28425557 -16 4 C-15.01 4 -14.02 4 -13 4 C-13 3.34 -13 2.68 -13 2 C-8.50343896 -0.24828052 -4.92127034 -0.16682272 0 0 Z " fill="#EDEAEB" transform="translate(37,5)"/>
<path d="M0 0 C0 1.65 0 3.3 0 5 C1.16917969 4.93039063 2.33835937 4.86078125 3.54296875 4.7890625 C5.09108821 4.73276725 6.63927002 4.67816898 8.1875 4.625 C8.95642578 4.57472656 9.72535156 4.52445313 10.51757812 4.47265625 C16.15550669 4.32747354 16.15550669 4.32747354 18.66650391 6.32714844 C22 10.26149691 22 10.26149691 22 12 C14.74 12 7.48 12 0 12 C0 14.31 0 16.62 0 19 C8.58 19 17.16 19 26 19 C26 21.31 26 23.62 26 26 C8.51 26 -8.98 26 -27 26 C-26.67 24.68 -26.34 23.36 -26 22 C-25.01 22.33 -24.02 22.66 -23 23 C-23.144375 22.4225 -23.28875 21.845 -23.4375 21.25 C-23.623125 20.5075 -23.80875 19.765 -24 19 C-24.23332031 18.37738281 -24.46664063 17.75476563 -24.70703125 17.11328125 C-25 15 -25 15 -23.890625 12.96484375 C-23.34921875 12.29582031 -22.8078125 11.62679688 -22.25 10.9375 C-21.45335937 9.93009766 -21.45335937 9.93009766 -20.640625 8.90234375 C-17.52030255 5.28425557 -17.52030255 5.28425557 -16 4 C-15.01 4 -14.02 4 -13 4 C-13 3.34 -13 2.68 -13 2 C-8.50343896 -0.24828052 -4.92127034 -0.16682272 0 0 Z " fill="#1560B9" transform="translate(37,5)"/>
<path d="M0 0 C17.49 0 34.98 0 53 0 C53 2.31 53 4.62 53 7 C35.84 7 18.68 7 1 7 C0.67 4.69 0.34 2.38 0 0 Z " fill="#EBE6E8" transform="translate(10,31)"/>
<path d="M0 0 C16.83 0 33.66 0 51 0 C50 5 50 5 49 7 C42.50403621 7.12661746 36.00838964 7.21427346 29.51147461 7.2746582 C27.30074167 7.2998263 25.09009212 7.3339638 22.87963867 7.37719727 C19.70470633 7.43774679 16.53087239 7.4661867 13.35546875 7.48828125 C12.36475876 7.51408768 11.37404877 7.5398941 10.35331726 7.56648254 C7.80392462 7.56752823 5.49303768 7.53302901 3 7 C0.80671685 4.54287448 0 3.28241728 0 0 Z " fill="#D7032A" transform="translate(11,38)"/>
<path d="M0 0 C8.58 0 17.16 0 26 0 C26 2.31 26 4.62 26 7 C17.42 7 8.84 7 0 7 C0 4.69 0 2.38 0 0 Z " fill="#D70B30" transform="translate(37,24)"/>
<path d="M0 0 C7.59 0 15.18 0 23 0 C25 4 25 4 25 7 C16.75 7 8.5 7 0 7 C0 4.69 0 2.38 0 0 Z " fill="#EDE5E7" transform="translate(37,17)"/>
<path d="M0 0 C2.73156959 -0.16262928 5.45342122 -0.28110686 8.1875 -0.375 C8.95642578 -0.42527344 9.72535156 -0.47554687 10.51757812 -0.52734375 C16.15550669 -0.67252646 16.15550669 -0.67252646 18.66650391 1.32714844 C22 5.26149691 22 5.26149691 22 7 C14.74 7 7.48 7 0 7 C0 4.69 0 2.38 0 0 Z " fill="#D50D31" transform="translate(37,10)"/>
<path d="M0 0 C10.56 0 21.12 0 32 0 C24.2469556 6.20243552 16.60161758 5.74303975 7 5 C4.0493097 3.98694441 2.45306827 2.96245461 0 1 C0 0.67 0 0.34 0 0 Z " fill="#D00C30" transform="translate(21,52)"/>
<path d="M0 0 C1.32 0 2.64 0 4 0 C4 8.58 4 17.16 4 26 C3.67 26 3.34 26 3 26 C2.67 23.69 2.34 21.38 2 19 C1.01 18.67 0.02 18.34 -1 18 C-0.67 16.02 -0.34 14.04 0 12 C-0.99 11.34 -1.98 10.68 -3 10 C-2.02391783 7.07175348 -0.89213369 5.38573379 1 3 C0.34 3 -0.32 3 -1 3 C-0.67 2.01 -0.34 1.02 0 0 Z " fill="#0E56B2" transform="translate(33,5)"/>
<path d="M0 0 C-0.33 0.66 -0.66 1.32 -1 2 C-0.34 2 0.32 2 1 2 C0.67 3.65 0.34 5.3 0 7 C-1.65 7 -3.3 7 -5 7 C-5.66 5.68 -6.32 4.36 -7 3 C-7.28875 3.639375 -7.5775 4.27875 -7.875 4.9375 C-9 7 -9 7 -11 8 C-11 8.66 -11 9.32 -11 10 C-10.34 10 -9.68 10 -9 10 C-9.33 11.32 -9.66 12.64 -10 14 C-11.32 14 -12.64 14 -14 14 C-14.33 12.68 -14.66 11.36 -15 10 C-14.34 10 -13.68 10 -13 10 C-13.20625 9.21625 -13.4125 8.4325 -13.625 7.625 C-13.74875 6.75875 -13.8725 5.8925 -14 5 C-13.34 4.34 -12.68 3.68 -12 3 C-11.01 3 -10.02 3 -9 3 C-9 2.34 -9 1.68 -9 1 C-5.57367167 -0.61798838 -3.61944899 -1.34053666 0 0 Z " fill="#538DC8" transform="translate(33,6)"/>
<path d="M0 0 C0.66 0.33 1.32 0.66 2 1 C1.67 3.64 1.34 6.28 1 9 C1.66 9 2.32 9 3 9 C3 9.66 3 10.32 3 11 C2.01 11 1.02 11 0 11 C0 11.66 0 12.32 0 13 C-1.98 13.99 -1.98 13.99 -4 15 C-5.4318457 12.72589213 -6.00886042 11.33669586 -5.9375 8.625 C-4.64152428 4.99626797 -2.58425905 2.84931126 0 0 Z " fill="#075AB5" transform="translate(18,12)"/>
<path d="M0 0 C6.07328688 -0.50610724 9.77228537 0.95842058 15 4 C15 4.33 15 4.66 15 5 C10.05 5 5.1 5 0 5 C0 3.35 0 1.7 0 0 Z " fill="#E9ECEC" transform="translate(37,5)"/>
<path d="M0 0 C16.83 0 33.66 0 51 0 C51 0.33 51 0.66 51 1 C50.40309357 1.00808685 49.80618713 1.01617371 49.19119263 1.02450562 C42.9945903 1.11037197 36.79831452 1.20986693 30.60205078 1.31738281 C28.28765331 1.35573401 25.97319498 1.3905759 23.65869141 1.421875 C20.33734336 1.4673924 17.01641659 1.52540843 13.6953125 1.5859375 C12.65569366 1.59748871 11.61607483 1.60903992 10.54495239 1.62094116 C9.58410736 1.64081085 8.62326233 1.66068054 7.63330078 1.68115234 C6.36089035 1.70113785 6.36089035 1.70113785 5.06277466 1.7215271 C2.77813881 1.81776158 2.77813881 1.81776158 1 4 C0.67 2.68 0.34 1.36 0 0 Z " fill="#D52343" transform="translate(11,38)"/>
<path d="M0 0 C2.125 0.9375 2.125 0.9375 4 2 C3.67 2.99 3.34 3.98 3 5 C1.68 5 0.36 5 -1 5 C-1.33 3.68 -1.66 2.36 -2 1 C-1.34 0.67 -0.68 0.34 0 0 Z " fill="#A2BDDC" transform="translate(30,15)"/>
<path d="M0 0 C-0.33 1.32 -0.66 2.64 -1 4 C-2.32 4 -3.64 4 -5 4 C-5.33 2.68 -5.66 1.36 -6 0 C-3 -1 -3 -1 0 0 Z " fill="#A5BEDD" transform="translate(24,16)"/>
<path d="M0 0 C0.99 0.33 1.98 0.66 3 1 C3 1.99 3 2.98 3 4 C1 5.6875 1 5.6875 -1 7 C-1.625 4.625 -1.625 4.625 -2 2 C-1.34 1.34 -0.68 0.68 0 0 Z " fill="#6F9FCF" transform="translate(21,9)"/>
<path d="M0 0 C2.125 0.9375 2.125 0.9375 4 2 C3.01 3.485 3.01 3.485 2 5 C1.01 5 0.02 5 -1 5 C-1.33 3.68 -1.66 2.36 -2 1 C-1.34 0.67 -0.68 0.34 0 0 Z " fill="#B8CBE2" transform="translate(30,23)"/>
<path d="M0 0 C0.33 0 0.66 0 1 0 C1 2.31 1 4.62 1 7 C-0.32 6.67 -1.64 6.34 -3 6 C-1.125 1.125 -1.125 1.125 0 0 Z " fill="#0052B4" transform="translate(35,17)"/>
</svg>
