<?xml version="1.0" encoding="UTF-8"?>
<svg version="1.1" xmlns="http://www.w3.org/2000/svg" width="74" height="62">
<path d="M0 0 C24.42 0 48.84 0 74 0 C74 20.46 74 40.92 74 62 C49.58 62 25.16 62 0 62 C0 41.54 0 21.08 0 0 Z " fill="#F1F0F1" transform="translate(0,0)"/>
<path d="M0 0 C0 16.17 0 32.34 0 49 C-6.22669197 47.75466161 -9.14836696 45.66118423 -12.6796875 40.5859375 C-17.1836848 33.28041078 -18.90045034 27.62403139 -18 19 C-15.89433215 11.58804916 -11.53789186 5.5505732 -5.3125 1.0625 C-3 0 -3 0 0 0 Z " fill="#0D5AB7" transform="translate(27,3)"/>
<path d="M0 0 C7.68057552 2.56019184 11.61583214 6.34924297 16 13.0625 C18.3088407 19.67003752 18.20558305 28.10418071 16.15625 34.7265625 C13.37458878 40.1959099 9.09216143 44.59847666 4 48 C2.02 48.495 2.02 48.495 0 49 C0 32.83 0 16.66 0 0 Z " fill="#D8052B" transform="translate(45,3)"/>
</svg>
