<?xml version="1.0" encoding="UTF-8"?>
<svg version="1.1" xmlns="http://www.w3.org/2000/svg" width="70" height="67">
<path d="M0 0 C23.1 0 46.2 0 70 0 C70 22.11 70 44.22 70 67 C46.9 67 23.8 67 0 67 C0 44.89 0 22.78 0 0 Z " fill="#F2F1F1" transform="translate(0,0)"/>
<path d="M0 0 C5.55994701 3.78651564 10.41347509 8.29011121 12 15 C12.47709393 20.32595403 12.38281683 25.67194277 12 31 C11 32 11 32 8.94358826 32.12025452 C8.03979935 32.11803391 7.13601044 32.11581329 6.20483398 32.11352539 C5.18385117 32.11344986 4.16286835 32.11337433 3.11094666 32.11329651 C2.0005452 32.10813522 0.89014374 32.10297394 -0.25390625 32.09765625 C-1.38448959 32.0962413 -2.51507294 32.09482635 -3.67991638 32.09336853 C-7.30747065 32.08775019 -10.93496424 32.07519458 -14.5625 32.0625 C-17.01497307 32.05748736 -19.4674471 32.05292405 -21.91992188 32.04882812 C-27.94663545 32.0377748 -33.97331339 32.02101884 -40 32 C-42.24613221 23.38398605 -41.29930255 15.8308725 -37 8 C-34.5625 5.125 -34.5625 5.125 -32 3 C-31.21625 2.29875 -30.4325 1.5975 -29.625 0.875 C-20.06501353 -5.95356177 -10.1598054 -5.62773534 0 0 Z " fill="#D80329" transform="translate(48,10)"/>
<path d="M0 0 C3.98744057 2.93390276 7.24910197 5.87365295 10 10 C10 11.32 10 12.64 10 14 C-6.17 14 -22.34 14 -39 14 C-37.07090696 8.21272087 -36.29959538 6.79964243 -32 3 C-30.824375 1.948125 -30.824375 1.948125 -29.625 0.875 C-20.0979217 -5.93005593 -10.12102974 -5.67041406 0 0 Z " fill="#0B0406" transform="translate(48,10)"/>
<path d="M0 0 C16.17 0 32.34 0 49 0 C47.52875479 5.88498086 44.79876828 9.61344945 40 13.3125 C32.46905414 17.54865705 25.46567416 17.84922123 17 17 C10.56758623 14.96775644 5.64012006 10.63323497 2 5 C1.34 3.35 0.68 1.7 0 0 Z " fill="#FED846" transform="translate(9,42)"/>
</svg>
