<?xml version="1.0" encoding="UTF-8"?>
<svg version="1.1" xmlns="http://www.w3.org/2000/svg" width="68" height="61">
<path d="M0 0 C22.44 0 44.88 0 68 0 C68 20.13 68 40.26 68 61 C45.56 61 23.12 61 0 61 C0 40.87 0 20.74 0 0 Z " fill="#F0F0EF" transform="translate(0,0)"/>
<path d="M0 0 C8.10840529 -0.38025625 13.30544553 1.77322381 19.58203125 6.7421875 C21.81911987 8.82320017 23.66352375 10.65473098 25.26953125 13.2421875 C25.26953125 13.9021875 25.26953125 14.5621875 25.26953125 15.2421875 C9.42953125 15.2421875 -6.41046875 15.2421875 -22.73046875 15.2421875 C-20.15203749 8.79610934 -16.03078021 4.10692433 -9.5234375 1.28515625 C-6.36016785 0.49291394 -3.24091431 0.28746307 0 0 Z " fill="#FE9C1D" transform="translate(31.73046875,2.7578125)"/>
<path d="M0 0 C15.51 0 31.02 0 47 0 C44.25634919 6.85912702 40.23169339 10.09130013 33.6875 13.375 C26.88971141 16.11715879 20.67993184 15.84110114 13.8125 13.4375 C7.29097462 10.55159664 3.16384548 6.32769096 0 0 Z " fill="#70A748" transform="translate(9,41)"/>
<path d="M0 0 C2.77839416 1.38310411 3.86203622 2.54916347 6 5 C6.77152986 9.32056721 6.52747866 11.19119939 4.125 14.875 C1.18884789 17.81115211 0.38251808 17.96298212 -3.875 18.375 C-7.15225968 18.31541346 -7.81687595 18.14649924 -10.5 16 C-12.41831364 12.16337272 -12.96644949 9.20490304 -12 5 C-8.63394339 0.10391766 -5.83719613 -1.0240695 0 0 Z " fill="#3071BF" transform="translate(36,20)"/>
<path d="M0 0 C0.763125 0.20625 1.52625 0.4125 2.3125 0.625 C0.4375 6.375 0.4375 6.375 -0.6875 8.625 C-2.9975 7.965 -5.3075 7.305 -7.6875 6.625 C-6.22846393 2.36012534 -5.12714281 -0.71541528 0 0 Z " fill="#0656B5" transform="translate(34.6875,25.375)"/>
<path d="M0 0 C0.66 0 1.32 0 2 0 C2 1.32 2 2.64 2 4 C2.78375 4.12375 3.5675 4.2475 4.375 4.375 C7 5 7 5 9 7 C8.01 8.485 8.01 8.485 7 10 C3.96846314 9.67226629 2.38426897 9.35865103 0.125 7.25 C-1.29737468 4.40525065 -0.91172698 2.98383376 0 0 Z " fill="#276BBD" transform="translate(25,28)"/>
</svg>
