<?xml version="1.0" encoding="UTF-8"?>
<svg version="1.1" xmlns="http://www.w3.org/2000/svg" width="76" height="69">
<path d="M0 0 C25.08 0 50.16 0 76 0 C76 22.77 76 45.54 76 69 C50.92 69 25.84 69 0 69 C0 46.23 0 23.46 0 0 Z " fill="#F0F0F0" transform="translate(0,0)"/>
<path d="M0 0 C4.10198969 1.34246935 5.88827306 2.64878144 8.4375 6.125 C9.03610081 9.71660485 8.69053004 11.56833391 7.1875 14.875 C5.28363263 17.32282948 4.41442549 18.29807625 1.4375 19.125 C-2.68923287 19.05130834 -4.82195415 18.75161572 -8 16.0625 C-10.01364353 12.27685016 -10.66755609 9.31746471 -9.5625 5.125 C-6.46813147 1.42685224 -4.85480091 0.17034389 0 0 Z " fill="#CB0D37" transform="translate(36.5625,21.875)"/>
<path d="M0 0 C5.94 0 11.88 0 18 0 C16 6 16 6 13.8125 7.9375 C10.03803207 9.36341011 7.86026811 9.12298709 4 8 C1.5625 5.625 1.5625 5.625 0 3 C0 2.01 0 1.02 0 0 Z " fill="#0857B6" transform="translate(27,32)"/>
<path d="M0 0 C0.99 0.33 1.98 0.66 3 1 C3.33 1.99 3.66 2.98 4 4 C4.99 4.33 5.98 4.66 7 5 C6.67 6.65 6.34 8.3 6 10 C5.01 10 4.02 10 3 10 C3 10.66 3 11.32 3 12 C1.35 11.67 -0.3 11.34 -2 11 C-2 10.34 -2 9.68 -2 9 C-2.66 9 -3.32 9 -4 9 C-4.33 7.68 -4.66 6.36 -5 5 C-4.34 5 -3.68 5 -3 5 C-2.5359375 4.0409375 -2.5359375 4.0409375 -2.0625 3.0625 C-1 1 -1 1 0 0 Z " fill="#3F3F3F" transform="translate(47,13)"/>
<path d="M0 0 C3.25543229 0.34879632 4.01873107 1.02133261 6.25 3.5625 C6.8275 4.366875 7.405 5.17125 8 6 C7.01 6.33 6.02 6.66 5 7 C5 7.99 5 8.98 5 10 C3.02 10.99 3.02 10.99 1 12 C-1.5625 9.75 -1.5625 9.75 -4 7 C-4 4.75 -4 4.75 -3 3 C-2.01 2.67 -1.02 2.34 0 2 C0 1.34 0 0.68 0 0 Z " fill="#949494" transform="translate(22,38)"/>
<path d="M0 0 C0 0.66 0 1.32 0 2 C0.66 2 1.32 2 2 2 C2 2.66 2 3.32 2 4 C2.66 4 3.32 4 4 4 C3.67 5.32 3.34 6.64 3 8 C0.50638429 6.79618552 -1.68143083 5.54571278 -4 4 C-3.319375 4.5775 -2.63875 5.155 -1.9375 5.75 C-1.298125 6.4925 -0.65875 7.235 0 8 C-0.25 10.25 -0.25 10.25 -1 12 C-2.9375 11.1875 -2.9375 11.1875 -5 10 C-5.33 9.01 -5.66 8.02 -6 7 C-6.66 7 -7.32 7 -8 7 C-7.67 5.68 -7.34 4.36 -7 3 C-6.34 3 -5.68 3 -5 3 C-5 2.34 -5 1.68 -5 1 C-3 0 -3 0 0 0 Z " fill="#5A5A5A" transform="translate(50,38)"/>
<path d="M0 0 C5.57142857 5.14285714 5.57142857 5.14285714 6 9 C4.35 8.67 2.7 8.34 1 8 C1 7.34 1 6.68 1 6 C0.34 6 -0.32 6 -1 6 C-1.33 4.68 -1.66 3.36 -2 2 C-1.34 2 -0.68 2 0 2 C0 1.34 0 0.68 0 0 Z " fill="#7B7B7B" transform="translate(44,16)"/>
<path d="M0 0 C3.36720387 1.39332574 4.9859524 2.9789286 7 6 C6.01 6.33 5.02 6.66 4 7 C4 7.66 4 8.32 4 9 C3.01 8.67 2.02 8.34 1 8 C1.020625 7.236875 1.04125 6.47375 1.0625 5.6875 C1.12942841 2.89814214 1.12942841 2.89814214 0 0 Z " fill="#343434" transform="translate(23,38)"/>
<path d="M0 0 C1.32 0.66 2.64 1.32 4 2 C3.67 3.32 3.34 4.64 3 6 C1.68 5.34 0.36 4.68 -1 4 C-0.67 2.68 -0.34 1.36 0 0 Z " fill="#535353" transform="translate(46,44)"/>
<path d="M0 0 C0.33 0.66 0.66 1.32 1 2 C1.66 2.33 2.32 2.66 3 3 C2.34 3 1.68 3 1 3 C0.67 4.65 0.34 6.3 0 8 C-0.33 7.34 -0.66 6.68 -1 6 C-1.66 6 -2.32 6 -3 6 C-2.67 4.68 -2.34 3.36 -2 2 C-1.34 2 -0.68 2 0 2 C0 1.34 0 0.68 0 0 Z " fill="#868686" transform="translate(45,39)"/>
<path d="M0 0 C-1.28519565 2.86697492 -2.57129254 4.97607712 -5 7 C-5.66 7 -6.32 7 -7 7 C-3.86206897 0 -3.86206897 0 0 0 Z " fill="#202020" transform="translate(30,18)"/>
<path d="M0 0 C-1.28519565 2.86697492 -2.57129254 4.97607712 -5 7 C-5.66 7 -6.32 7 -7 7 C-3.86206897 0 -3.86206897 0 0 0 Z " fill="#1E1E1E" transform="translate(27,16)"/>
<path d="M0 0 C-1.28519565 2.86697492 -2.57129254 4.97607712 -5 7 C-5.66 7 -6.32 7 -7 7 C-3.86206897 0 -3.86206897 0 0 0 Z " fill="#212121" transform="translate(25,13)"/>
<path d="M0 0 C3.36720387 1.39332574 4.9859524 2.9789286 7 6 C4 6 4 6 1.8125 4.125 C0 2 0 2 0 0 Z " fill="#1B1B1B" transform="translate(18,43)"/>
<path d="M0 0 C0.99 0.33 1.98 0.66 3 1 C2.67 2.65 2.34 4.3 2 6 C-0.51083114 4.74458443 -0.87125446 3.49936512 -2 1 C-1.34 0.67 -0.68 0.34 0 0 Z " fill="#7B7B7B" transform="translate(51,17)"/>
</svg>
