<?xml version="1.0" encoding="UTF-8"?>
<svg version="1.1" xmlns="http://www.w3.org/2000/svg" width="72" height="69">
<path d="M0 0 C23.76 0 47.52 0 72 0 C72 22.77 72 45.54 72 69 C48.24 69 24.48 69 0 69 C0 46.23 0 23.46 0 0 Z " fill="#F1F0F1" transform="translate(0,0)"/>
<path d="M0 0 C0 16.5 0 33 0 50 C-7.38665449 47.53778184 -11.37212026 44.00295667 -15.375 37.375 C-18.58167625 30.7149801 -19.21984515 23.12911808 -17 16 C-14.41573746 9.85929997 -7.34932847 0 0 0 Z " fill="#74A94D" transform="translate(27,9)"/>
<path d="M0 0 C5.86203626 1.46550906 9.93993173 4.30758463 13.62890625 9.12890625 C17.66586208 16.11019454 18.10638425 23.10114198 17 31 C14.82642525 38.32833687 10.4004765 43.83905405 4 48 C2.02 48.495 2.02 48.495 0 49 C0 32.83 0 16.66 0 0 Z " fill="#D8052B" transform="translate(45,10)"/>
</svg>
